<svg viewBox="0 0 171 36" fill="none" xmlns="http://www.w3.org/2000/svg">
<path fill-rule="evenodd" clip-rule="evenodd" d="M18.358 23.4251C23.3206 23.4141 28.2866 25.3133 32.0729 29.1231C32.9627 30.0184 33.7476 30.9791 34.4276 31.9899C34.7728 32.5031 34.5437 33.1917 33.9743 33.432L28.0799 35.9193C27.6448 36.1029 27.1443 35.9609 26.8376 35.6016C26.654 35.3868 26.4611 35.1772 26.2587 34.9734C25.4371 34.1469 24.519 33.4767 23.5409 32.9632C21.9225 32.1134 20.1396 31.6919 18.358 31.6988C16.5766 31.6919 14.7937 32.1134 13.1753 32.9632C12.1971 33.4767 11.279 34.1469 10.4575 34.9734C10.255 35.1772 10.0621 35.3868 9.8785 35.6016C9.57176 35.9609 9.07128 36.1029 8.63618 35.9193L2.74184 33.432C2.17236 33.1917 1.94333 32.5031 2.28845 31.9899C2.9685 30.9791 3.75339 30.0184 4.64314 29.1231C8.42944 25.3133 13.3955 23.4141 18.358 23.4251Z" fill="currentColor"/>
<path fill-rule="evenodd" clip-rule="evenodd" d="M8.35001 5.01105C8.35001 9.77302 5.39121 13.8398 1.22256 15.4513C0.833864 15.6016 0.550618 15.9521 0.518399 16.3677L0.00313742 23.0157C-0.0472868 23.6663 0.517608 24.1979 1.15623 24.0657C9.95597 22.2433 16.5728 14.4046 16.5728 5.01105C16.5728 3.54772 16.4121 2.12214 16.1078 0.751158C15.9757 0.156458 15.3348 -0.154138 14.7712 0.0763061L8.91195 2.47207C8.45861 2.65744 8.20558 3.13821 8.26537 3.62456C8.32123 4.07883 8.35001 4.54157 8.35001 5.01105Z" fill="currentColor"/>
<path fill-rule="evenodd" clip-rule="evenodd" d="M28.7956 5.01105C28.7956 9.77302 31.7545 13.8398 35.9231 15.4513C36.3119 15.6016 36.595 15.9521 36.6273 16.3677L37.1426 23.0157C37.193 23.6663 36.6281 24.1979 35.9894 24.0657C27.1897 22.2433 20.573 14.4046 20.573 5.01105C20.573 3.54772 20.7335 2.12214 21.0378 0.751158C21.1699 0.156458 21.8108 -0.154138 22.3745 0.0763061L28.2337 2.47207C28.6871 2.65744 28.9401 3.13821 28.8803 3.62456C28.8244 4.07883 28.7956 4.54157 28.7956 5.01105Z" fill="currentColor"/>
<path d="M121.396 31.254C121.146 31.254 120.941 31.0499 120.941 30.7982V6.88161C120.941 6.62993 121.146 6.4259 121.396 6.4259H134.433C139.179 6.4259 142.498 9.65355 142.498 14.2778C142.498 17.7537 140.482 20.5779 137.411 21.6952L143.185 30.5494C143.383 30.8525 143.166 31.254 142.804 31.254H137.072C136.916 31.254 136.771 31.1743 136.687 31.0429L131.114 22.2848H126.989V30.7982C126.989 31.0499 126.785 31.254 126.533 31.254H121.396ZM126.989 16.8537H134.061C135.488 16.8537 136.449 15.8295 136.449 14.3709C136.449 12.8813 135.488 11.8571 134.061 11.8571H126.989V16.8537Z" fill="#141414"/>
<path d="M96.6663 31.254C96.4147 31.254 96.2106 31.0499 96.2106 30.7982V6.88161C96.2106 6.62993 96.4147 6.4259 96.6663 6.4259H101.803C102.055 6.4259 102.259 6.62993 102.259 6.88161V15.9227H111.409V6.88161C111.409 6.62993 111.613 6.4259 111.865 6.4259H116.97C117.222 6.4259 117.426 6.62993 117.426 6.88161V30.7982C117.426 31.0499 117.222 31.254 116.97 31.254H111.865C111.613 31.254 111.409 31.0499 111.409 30.7982V21.3537H102.259V30.7982C102.259 31.0499 102.055 31.254 101.803 31.254H96.6663Z" fill="#141414"/>
<path d="M81.6648 31.5951C74.314 31.5951 69.0721 26.4122 69.0721 18.8087C69.0721 11.2361 74.314 6.08423 81.6028 6.08423C88.0688 6.08423 92.7851 10.2567 94.1402 15.9704C94.2064 16.2497 93.9906 16.512 93.7036 16.512H88.3372C88.1331 16.512 87.9556 16.3757 87.8896 16.1828C87.041 13.7031 84.6686 11.7947 81.7269 11.7947C78.067 11.7947 75.2755 14.6189 75.2755 18.8087C75.2755 22.9673 78.098 25.7294 81.7889 25.7294C84.8221 25.7294 87.1427 23.9892 87.985 21.4387C88.0493 21.2436 88.228 21.1052 88.4334 21.1052H93.7822C94.0637 21.1052 94.2782 21.3582 94.2217 21.6339C93.0142 27.5259 88.2319 31.5951 81.6648 31.5951Z" fill="#141414"/>
<path d="M60.8113 6.4259C60.9993 6.4259 61.1681 6.54127 61.2363 6.7165L70.5281 30.633C70.6442 30.9317 70.424 31.2536 70.1037 31.2537H64.9126C64.7228 31.2537 64.5526 31.1363 64.4858 30.9588L62.7983 26.4743L60.9372 21.4466L58.1456 14.0601L55.8819 20.0501H59.5773C59.8923 20.0501 60.1121 20.3622 60.0062 20.6588L58.3931 25.1789C58.3283 25.3602 58.1566 25.4815 57.964 25.4815H53.8606L53.4929 26.4743L51.805 30.9588C51.7382 31.1362 51.5684 31.2537 51.3787 31.2537H46.156C45.8357 31.2537 45.6154 30.9321 45.731 30.6334L54.9931 6.71695C55.0611 6.5415 55.2299 6.42593 55.4182 6.4259H60.8113Z" fill="#141414"/>
<path d="M160.159 6.4259C160.347 6.4259 160.517 6.54127 160.584 6.7165L169.877 30.633C169.993 30.9317 169.772 31.2536 169.451 31.2537H164.261C164.071 31.2537 163.901 31.1362 163.834 30.9588L162.147 26.4743L160.285 21.4466L157.494 14.0601L155.23 20.0501H158.925C159.24 20.0501 159.46 20.3622 159.354 20.6588L157.741 25.1789C157.676 25.3602 157.505 25.4815 157.311 25.4815H153.209L152.841 26.4743L151.153 30.9588C151.087 31.1363 150.917 31.2537 150.727 31.2537H145.503C145.184 31.2537 144.963 30.9321 145.079 30.6334L154.341 6.71695C154.409 6.54151 154.578 6.42595 154.766 6.4259H160.159Z" fill="#141414"/>
</svg>
