<svg  viewBox="0 0 21 22" fill="none" xmlns="http://www.w3.org/2000/svg">
<path d="M10.0714 3.95319C10.2371 3.95318 10.3714 3.81887 10.3714 3.65319L10.3715 0.828242C7.65529 0.940886 5.21399 2.11723 3.45294 3.95334L10.0714 3.95319ZM6.53645 8.06492C6.53645 8.23061 6.40214 8.36492 6.23645 8.36493L0.963801 8.36515C1.31317 7.05922 1.91567 5.85631 2.71467 4.81305L6.23649 4.81289C6.40218 4.81289 6.53651 4.94721 6.53651 5.11291L6.53645 8.06492ZM18.1507 18.0493C16.3903 19.8847 13.949 21.0611 11.2321 21.1744L11.2322 18.3495C11.2322 18.1838 11.3665 18.0495 11.5322 18.0495L18.1507 18.0493ZM10.3717 21.1737C7.65549 21.0612 5.21357 19.8843 3.45328 18.049L10.0718 18.0488C10.2375 18.0488 10.3718 18.1831 10.3718 18.3488L10.3717 21.1737ZM7.71761 13.9364C7.71761 13.7707 7.85192 13.6364 8.01761 13.6364L20.6398 13.6361C20.2904 14.9421 19.6886 16.1443 18.889 17.1882L8.01755 17.1885C7.85186 17.1885 7.71753 17.0541 7.71753 16.8885L7.71761 13.9364ZM15.9622 9.51695C15.9663 9.35425 16.0993 9.22447 16.2621 9.22447L20.831 9.22437C20.9326 9.80092 20.9858 10.3945 20.9858 11.0004C20.9858 11.6063 20.9326 12.1999 20.8309 12.7764L16.2635 12.7759C16.1004 12.7759 15.9672 12.6456 15.9636 12.4826L15.9279 10.884L15.9622 9.51695ZM6.99143 16.8892C6.99142 17.0549 6.85711 17.1892 6.69142 17.1892L2.71506 17.1893C1.91544 16.1454 1.31367 14.9432 0.964366 13.6373L6.69148 13.6371C6.85718 13.6371 6.9915 13.7715 6.9915 13.9371L6.99143 16.8892ZM0.774107 9.22485L14.7922 9.22451C14.9579 9.22451 15.0922 9.35883 15.0922 9.52452L15.0922 12.4766C15.0921 12.6422 14.9578 12.7766 14.7921 12.7766L0.774018 12.7769C0.67237 12.2004 0.619176 11.6067 0.61919 11.0009C0.619204 10.395 0.672431 9.80139 0.774107 9.22485ZM7.39757 5.11285C7.39758 4.94717 7.53189 4.81285 7.69758 4.81285L18.8893 4.81267C19.6889 5.85657 20.2906 7.05876 20.6399 8.36467L7.69751 8.3649C7.53182 8.3649 7.3975 8.23058 7.3975 8.06489L7.39757 5.11285ZM11.2326 0.828236C13.9488 0.940751 16.3907 2.11765 18.151 3.953L11.5325 3.95315C11.3668 3.95315 11.2325 3.81883 11.2325 3.65313L11.2326 0.828236Z" fill="#343839"/>
</svg>
