<svg xmlns="http://www.w3.org/2000/svg" version="1.1" xmlns:xlink="http://www.w3.org/1999/xlink" width="31" height="31"><svg width="31" height="31" viewBox="0 0 31 31" fill="none" xmlns="http://www.w3.org/2000/svg">
<path d="M0 18.4821C0 17.2515 0.997586 16.2539 2.22817 16.2539H3.58099C9.73391 16.2539 14.7218 21.2418 14.7218 27.3948V28.7476C14.7218 29.9782 13.7243 30.9757 12.4937 30.9757H2.22817C0.997585 30.9757 0 29.9782 0 28.7476V18.4821Z" fill="#38C780"></path>
<path d="M0 2.22817C0 0.997585 0.997586 0 2.22817 0H12.4937C13.7243 0 14.7218 0.997586 14.7218 2.22817V3.58099C14.7218 9.73391 9.73391 14.7218 3.58099 14.7218H2.22817C0.997585 14.7218 0 13.7243 0 12.4937V2.22817Z" fill="#38C780"></path>
<path d="M16.2539 27.3948C16.2539 21.2418 21.2418 16.2539 27.3948 16.2539H28.7476C29.9782 16.2539 30.9757 17.2515 30.9757 18.4821V28.7476C30.9757 29.9782 29.9782 30.9757 28.7476 30.9757H18.4821C17.2515 30.9757 16.2539 29.9782 16.2539 28.7476V27.3948Z" fill="#38C780"></path>
<path d="M16.2539 2.22817C16.2539 0.997585 17.2515 0 18.4821 0H28.7476C29.9782 0 30.9757 0.997586 30.9757 2.22817V12.4937C30.9757 13.7243 29.9782 14.7218 28.7476 14.7218H27.3948C21.2418 14.7218 16.2539 9.73391 16.2539 3.58099V2.22817Z" fill="#38C780"></path>
</svg><style>@media (prefers-color-scheme: light) { :root { filter: none; } }
@media (prefers-color-scheme: dark) { :root { filter: none; } }
</style></svg>