<svg viewBox="0 0 93 24" fill="none" xmlns="http://www.w3.org/2000/svg">
<mask id="mask0_446_1879" style="mask-type:luminance" maskUnits="userSpaceOnUse" x="0" y="0" width="93" height="24">
<path d="M92.4444 0.977783H0V23.0222H92.4444V0.977783Z" fill="white"/>
</mask>
<g mask="url(#mask0_446_1879)">
<path d="M92.3545 15.4704C92.2158 17.4543 92.2457 19.7656 92.4441 22.4042H75.8091V21.809C76.3246 21.809 76.7513 21.6106 77.0884 21.2139C77.4254 20.8171 77.5947 20.1525 77.5947 19.22V4.6679C77.5947 3.61638 77.4354 2.94185 77.1182 2.64426C76.821 2.32684 76.3844 2.16812 75.8091 2.16812V1.57294H91.8489C91.6903 4.54886 91.6605 6.66171 91.7593 7.91163H91.3134C91.115 6.26491 90.6286 5.01506 89.8549 4.16194C89.1012 3.28905 87.9008 2.85257 86.2546 2.85257H84.2905C84.1113 2.85257 83.9229 2.87241 83.7245 2.91209C83.546 2.95177 83.3277 3.03113 83.0702 3.15017C82.832 3.24937 82.6336 3.43782 82.475 3.71558C82.3165 3.9735 82.2368 4.29094 82.2368 4.6679V11.2743H82.832C83.8638 11.2743 84.6674 10.9073 85.2427 10.1733C85.818 9.43924 86.1849 8.51672 86.3435 7.40568H86.8491C86.7502 9.92528 86.7801 12.9211 86.9387 16.3929H86.4331C85.9965 13.8336 84.7961 12.554 82.832 12.554H82.2368V19.22C82.2368 19.6366 82.2966 19.9838 82.4153 20.2616C82.554 20.5393 82.7325 20.7377 82.9508 20.8568C83.189 20.956 83.4073 21.0254 83.6057 21.0651C83.8041 21.1047 84.0324 21.1246 84.2905 21.1246H86.522C89.5378 21.1246 91.3433 19.2398 91.9385 15.4704H92.3545Z" fill="currentColor"/>
<path d="M71.7651 2.19788V1.6027L76.5566 1.57294V2.16812C76.0801 2.16812 75.6335 2.3566 75.2175 2.73354C74.8207 3.09065 74.4339 3.76521 74.0563 4.75714L67.3612 22.4042H65.3075L58.0762 4.75714C57.3622 3.03113 56.5587 2.16812 55.6655 2.16812V1.57294H64.3254V2.16812C64.0872 2.16812 63.8689 2.2078 63.6705 2.28716C63.4721 2.36652 63.2936 2.49547 63.135 2.67402C62.9964 2.83273 62.9267 3.10057 62.9267 3.4775C62.9267 3.83462 63.0262 4.26114 63.2246 4.75714L68.0453 16.9583L72.777 4.75714C73.0351 4.1421 73.1141 3.64617 73.0152 3.26921C72.9356 2.89225 72.777 2.62442 72.5388 2.46571C72.3205 2.28716 72.063 2.19788 71.7651 2.19788Z" fill="currentColor"/>
<path d="M35.3079 15.4109C35.3872 15.6489 35.5162 16.0953 35.6947 16.75C35.8931 17.3848 36.0717 17.9602 36.2304 18.476C36.409 18.972 36.6172 19.4978 36.8553 20.0533C37.1132 20.5889 37.4108 21.0155 37.7481 21.3329C38.0854 21.6503 38.4425 21.809 38.8194 21.809V22.4042H32.57C31.5186 18.734 30.7151 16.1945 30.1596 14.7859C29.7033 13.5955 28.9593 13.3079 27.9277 13.9229L26.0528 15.024V19.22C26.0528 20.2517 26.2016 20.946 26.4992 21.3031C26.8166 21.6404 27.2432 21.809 27.7788 21.809V22.4042H19.5356V21.809C20.0316 21.809 20.4482 21.6106 20.7855 21.2139C21.1426 20.8171 21.3212 20.1525 21.3212 19.22V4.75714C21.3212 3.70569 21.1625 3.01129 20.845 2.67402C20.5276 2.33676 20.0911 2.16812 19.5356 2.16812V1.57294H30.725C32.5105 1.57294 33.8298 1.86061 34.6829 2.43595C35.5558 2.99145 35.9923 3.9735 35.9923 5.38207C35.9923 6.13599 35.8237 6.86011 35.4864 7.55451C35.1492 8.229 34.6631 8.86388 34.0282 9.45908C33.3933 10.0344 32.7486 10.5403 32.0939 10.9768C31.4591 11.4132 30.7051 11.8795 29.8322 12.3754C31.3003 11.7604 32.4311 11.6711 33.2247 12.1076C34.0183 12.5441 34.7127 13.6452 35.3079 15.4109ZM27.3325 12.8219C30.1298 11.1355 31.5285 8.87384 31.5285 6.03679C31.5285 4.84646 31.2805 4.02306 30.7845 3.56681C30.3083 3.09065 29.5842 2.85257 28.6121 2.85257C27.8185 2.85257 27.1936 3.06089 26.7373 3.4775C26.281 3.8743 26.0528 4.30082 26.0528 4.75714V13.5658L27.3325 12.8219Z" fill="currentColor"/>
<path d="M10.7132 14.0123V13.4766H19.1945V14.0123C18.9961 14.0123 18.8374 14.052 18.7184 14.1314C18.5993 14.2107 18.5101 14.3694 18.4506 14.6074C18.391 14.8257 18.3514 15.0241 18.3315 15.2026C18.3315 15.3812 18.3315 15.6788 18.3315 16.0954V22.4043H17.7363C17.2404 22.2059 16.665 22.1067 16.0103 22.1067C15.3557 22.0869 14.7505 22.1365 14.1951 22.2555C13.6594 22.3547 13.0245 22.4638 12.2905 22.5828C11.5762 22.7019 10.9612 22.7614 10.4454 22.7614C7.31079 22.7614 4.7813 21.819 2.85689 19.9343C0.95225 18.0496 0 15.4407 0 12.1077C0 10.0445 0.436481 8.18945 1.30937 6.5428C2.18233 4.87631 3.41234 3.56694 4.99954 2.61462C6.60651 1.6425 8.42176 1.15643 10.4454 1.15643C11.4969 1.15643 12.4194 1.23579 13.213 1.39451C14.0065 1.53338 14.5521 1.67226 14.8497 1.81113C15.1671 1.95 15.5044 2.01944 15.8615 2.01944C16.2385 1.9996 16.665 1.8508 17.1412 1.57306H17.8256C17.7066 3.39827 17.6471 5.76904 17.6471 8.68545H17.0519C16.3179 4.51919 14.324 2.43607 11.0704 2.43607C10.1379 2.43607 9.31456 2.6543 8.60032 3.09076C7.88615 3.52726 7.32068 4.08271 6.90411 4.75727C6.48747 5.41199 6.15019 6.18568 5.89227 7.07848C5.63435 7.97121 5.45579 8.81437 5.35659 9.60797C5.27723 10.4015 5.23755 11.205 5.23755 12.0184C5.23755 15.3514 5.69387 17.7619 6.60651 19.2499C7.53892 20.7179 8.9674 21.452 10.8918 21.452C11.6655 21.452 12.3103 21.2834 12.8261 20.9461C13.3618 20.589 13.6296 20.0435 13.6296 19.3094V16.1252C13.6296 15.272 13.4808 14.7066 13.1832 14.4289C12.8856 14.1512 12.469 14.0123 11.9334 14.0123H10.7132Z" fill="currentColor"/>
<path d="M57.433 8.04556C56.9956 6.75667 56.362 5.60566 55.5293 4.5924C54.7165 3.57921 53.615 2.76591 52.2276 2.15248C50.8616 1.5356 49.3227 1.22888 47.6182 1.22888C46.0146 1.22888 44.5377 1.5356 43.188 2.15248C41.8596 2.76936 40.7681 3.5827 39.9176 4.5924C39.064 5.60566 38.3997 6.75667 37.9246 8.04556C37.4496 9.33452 37.1914 10.6647 37.1535 12.0364C37.1122 13.3873 37.3015 14.7072 37.7181 15.9961C38.1346 17.285 38.7474 18.436 39.5634 19.4492C40.3962 20.4624 41.5048 21.2861 42.8922 21.9202C44.2795 22.5371 45.8561 22.8438 47.6182 22.8438C49.2431 22.8438 50.7201 22.5371 52.0491 21.9202C53.3981 21.2861 54.4861 20.4624 55.3188 19.4492C56.1729 18.436 56.8271 17.285 57.2815 15.9961C57.7565 14.7072 58.004 13.3873 58.0246 12.0364C58.0666 10.6682 57.8667 9.33793 57.4294 8.04904L57.433 8.04556ZM53.226 14.1868C53.0127 15.524 52.6962 16.7508 52.2689 17.8605C51.8422 18.9736 51.2122 19.8731 50.3688 20.5589C49.5531 21.2344 48.6237 21.5584 47.577 21.5377C46.5067 21.5274 45.5496 21.1689 44.7098 20.4625C43.8941 19.7422 43.2705 18.8186 42.8367 17.6882C42.4029 16.5578 42.0865 15.3138 41.8866 13.9525C41.7046 12.5981 41.7181 11.2506 41.9314 9.91343C42.1519 8.55564 42.4719 7.32186 42.8993 6.21217C43.343 5.1059 43.9766 4.20648 44.7994 3.51372C45.6392 2.82794 46.5821 2.49366 47.6289 2.51778C48.6991 2.52812 49.6427 2.89342 50.4584 3.6137C51.2982 4.32019 51.9218 5.24378 52.3314 6.38796C52.7652 7.51827 53.071 8.75895 53.2538 10.1133C53.4536 11.4746 53.4465 12.8324 53.226 14.1903V14.1868Z" fill="currentColor"/>
</g>
</svg>
