<svg viewBox="0 0 36 36" fill="none" xmlns="http://www.w3.org/2000/svg">
<path d="M6 0.5H30C33.0376 0.5 35.5 2.96243 35.5 6V30C35.5 33.0376 33.0376 35.5 30 35.5H6C2.96243 35.5 0.5 33.0376 0.5 30V6C0.500001 2.96243 2.96243 0.5 6 0.5Z" fill="currentColor"/>
<path d="M6 0.5H30C33.0376 0.5 35.5 2.96243 35.5 6V30C35.5 33.0376 33.0376 35.5 30 35.5H6C2.96243 35.5 0.5 33.0376 0.5 30V6C0.500001 2.96243 2.96243 0.5 6 0.5Z" stroke="#E4E4E7"/>
<path d="M18.0002 18.6667C18.3684 18.6667 18.6668 18.3682 18.6668 18C18.6668 17.6318 18.3684 17.3334 18.0002 17.3334C17.632 17.3334 17.3335 17.6318 17.3335 18C17.3335 18.3682 17.632 18.6667 18.0002 18.6667Z" stroke="black" stroke-width="1.33" stroke-linecap="round" stroke-linejoin="round"/>
<path d="M18.0002 14C18.3684 14 18.6668 13.7015 18.6668 13.3334C18.6668 12.9652 18.3684 12.6667 18.0002 12.6667C17.632 12.6667 17.3335 12.9652 17.3335 13.3334C17.3335 13.7015 17.632 14 18.0002 14Z" stroke="black" stroke-width="1.33" stroke-linecap="round" stroke-linejoin="round"/>
<path d="M18.0002 23.3334C18.3684 23.3334 18.6668 23.0349 18.6668 22.6667C18.6668 22.2985 18.3684 22 18.0002 22C17.632 22 17.3335 22.2985 17.3335 22.6667C17.3335 23.0349 17.632 23.3334 18.0002 23.3334Z" stroke="black" stroke-width="1.33" stroke-linecap="round" stroke-linejoin="round"/>
</svg>
