<svg viewBox="0 0 237 24" fill="none" xmlns="http://www.w3.org/2000/svg">
<path d="M6.8258 23.2608V16.709H10.5116C16.3167 16.709 19.941 13.5591 19.941 8.70827C19.941 3.85744 16.3474 0.707555 10.573 0.707555H0.375702V23.2608H6.8258ZM6.8258 5.49539H9.83585C12.0166 5.49539 13.4602 6.75534 13.4602 8.70827C13.4602 10.6612 12.0166 11.9212 9.83585 11.9212H6.8258V5.49539Z" fill="currentColor"/>
<path d="M33.1743 23.7332C40.5151 23.7332 45.4909 19.1659 45.4909 11.9842C45.4909 4.80241 40.5151 0.266571 33.1743 0.266571C25.8027 0.266571 20.8269 4.80241 20.8269 11.9842C20.8269 19.1659 25.8027 23.7332 33.1743 23.7332ZM33.1743 18.2839C29.7035 18.2839 27.3077 15.7955 27.3077 11.9842C27.3077 8.20429 29.7035 5.68438 33.1743 5.68438C36.645 5.68438 39.0101 8.20429 39.0101 11.9842C39.0101 15.7955 36.645 18.2839 33.1743 18.2839Z" fill="currentColor"/>
<path d="M60.2992 23.2608L63.3707 9.59024H63.6778L66.7493 23.2608H75.7795L81.7074 0.707555H75.2266L71.1415 17.2445H70.8344L66.7493 0.707555H60.2992L56.2449 17.2445H55.9377L51.822 0.707555H45.3411L51.2691 23.2608H60.2992Z" fill="currentColor"/>
<path d="M100.649 23.2608V18.0319H89.6834V14.0316H97.8382V9.71624H89.6834V5.93637H100.341V0.707555H83.4176V23.2608H100.649Z" fill="currentColor"/>
<path d="M109.171 23.2608V15.827H110.737L116.204 23.2608H123.422L116.942 15.323L117.187 15.26C120.382 14.6616 122.716 12.0787 122.716 8.39328C122.716 3.79445 119.153 0.707555 113.778 0.707555H102.69V23.2608H109.171ZM109.171 5.49539H112.641C114.699 5.49539 116.235 6.62935 116.235 8.48778C116.235 10.3777 114.699 11.5117 112.641 11.5117H109.171V5.49539Z" fill="currentColor"/>
<path d="M131.353 23.2608V14.2206H138.878V23.2608H145.358V0.707555H138.878V9.02326H131.353V0.707555H124.872V23.2608H131.353Z" fill="currentColor"/>
<path d="M159.741 23.7332C167.081 23.7332 172.057 19.1659 172.057 11.9842C172.057 4.80241 167.081 0.266571 159.741 0.266571C152.369 0.266571 147.393 4.80241 147.393 11.9842C147.393 19.1659 152.369 23.7332 159.741 23.7332ZM159.741 18.2839C156.27 18.2839 153.874 15.7955 153.874 11.9842C153.874 8.20429 156.27 5.68438 159.741 5.68438C163.211 5.68438 165.576 8.20429 165.576 11.9842C165.576 15.7955 163.211 18.2839 159.741 18.2839Z" fill="currentColor"/>
<path d="M184.291 23.7332C190.434 23.7332 194.611 19.9534 194.611 14.0001V0.707555H188.13V13.7796C188.13 16.4885 186.595 18.2839 184.291 18.2839C181.957 18.2839 180.452 16.52 180.452 13.7796V0.707555L173.971 4.61867V14.0001C173.971 19.9534 178.148 23.7332 184.291 23.7332Z" fill="currentColor"/>
<path d="M206.601 23.7332C212.744 23.7332 216.768 20.8353 216.768 16.3625C216.768 10.9132 211.7 10.0942 207.953 9.52724C205.403 9.14926 203.223 8.86577 203.223 7.16483C203.223 5.90487 204.451 5.0229 206.509 5.0229C208.721 5.0229 210.164 6.15686 210.164 8.14129H216.031C216.031 3.47946 212.13 0.266571 206.294 0.266571C200.489 0.266571 196.742 3.16447 196.742 7.63731C196.742 13.4331 202.455 13.9056 206.233 14.4411C208.475 14.7561 210.287 15.134 210.287 16.772C210.287 18.1579 208.936 18.9454 206.847 18.9454C204.206 18.9454 202.701 17.717 202.67 15.827H196.588C196.588 20.4889 200.581 23.7332 206.601 23.7332Z" fill="currentColor"/>
<path d="M236.109 23.2608V18.0319H225.144V14.0316H233.299V9.71624H225.144V5.93637H235.802V0.707555H218.878V23.2608H236.109Z" fill="currentColor"/>
</svg>
