<svg viewBox="0 0 48 48" fill="none" xmlns="http://www.w3.org/2000/svg">
<path fill-rule="evenodd" clip-rule="evenodd" d="M30.0177 0L10.2491 16.3694C7.34937 18.7705 7.13849 23.1435 9.79369 25.8125L16.6327 32.6871C18.6393 34.7041 19.0735 37.8035 17.6983 40.2942L13.4438 48H6.4C2.86538 48 0 45.1346 0 41.6V6.4C0 2.86538 2.86538 0 6.4 0H30.0177ZM33.7309 0L30.0384 6.72664C28.677 9.20674 29.1055 12.2865 31.0923 14.3007L38.3474 21.656C40.9968 24.3421 40.7597 28.7254 37.8361 31.1099L17.1276 48H41.6C45.1346 48 48 45.1346 48 41.6V6.4C48 2.86538 45.1346 0 41.6 0H33.7309Z" fill="black"/>
</svg>
