<svg width="61" height="17" viewBox="0 0 61 17" fill="none" xmlns="http://www.w3.org/2000/svg">
<path d="M46.0107 16.2663V8.17427H48.4192V9.6938H48.4682C48.6782 9.15579 48.9956 8.74622 49.4203 8.46509C49.8451 8.17912 50.3562 8.03613 50.9536 8.03613C51.8217 8.03613 52.5009 8.30514 52.9909 8.84316C53.4857 9.38117 53.7331 10.1276 53.7331 11.0825V16.2663H51.2476V11.635C51.2476 11.1649 51.1286 10.7989 50.8906 10.5372C50.6572 10.2706 50.3282 10.1373 49.9034 10.1373C49.4833 10.1373 49.1426 10.2827 48.8812 10.5735C48.6199 10.8644 48.4892 11.24 48.4892 11.7005V16.2663H46.0107Z" fill="black"/>
<path d="M45.562 8.23242L43.5457 16.3245H40.8712L39.618 10.8353H39.569L38.3228 16.3245H35.6903L33.667 8.23242H36.1664L37.1816 13.9834H37.2306L38.4488 8.23242H40.8152L42.0474 13.9834H42.0965L43.1116 8.23242H45.562Z" fill="black"/>
<path d="M32.5257 15.3872C31.821 16.1288 30.8501 16.4996 29.6132 16.4996C28.3764 16.4996 27.4055 16.1288 26.7007 15.3872C25.9959 14.6408 25.6436 13.6036 25.6436 12.2755C25.6436 10.9716 26.0006 9.94407 26.7147 9.19279C27.4289 8.43666 28.395 8.05859 29.6132 8.05859C30.8361 8.05859 31.8023 8.43424 32.5117 9.18552C33.2259 9.93196 33.5829 10.9619 33.5829 12.2755C33.5829 13.6084 33.2305 14.6457 32.5257 15.3872ZM28.5421 13.9986C28.7988 14.4009 29.1558 14.602 29.6132 14.602C30.0707 14.602 30.4277 14.4009 30.6844 13.9986C30.9411 13.5914 31.0695 13.0171 31.0695 12.2755C31.0695 11.5533 30.9388 10.9862 30.6774 10.5742C30.416 10.1622 30.0613 9.95619 29.6132 9.95619C29.1605 9.95619 28.8034 10.1622 28.5421 10.5742C28.2853 10.9813 28.157 11.5484 28.157 12.2755C28.157 13.0171 28.2853 13.5914 28.5421 13.9986Z" fill="black"/>
<path d="M17.2422 16.3249V8.23287H19.6506V9.7524H19.6996C19.9096 9.21438 20.227 8.80481 20.6518 8.52369C21.0765 8.23771 21.5876 8.09473 22.185 8.09473C23.0532 8.09473 23.7323 8.36373 24.2224 8.90175C24.7171 9.43977 24.9645 10.1862 24.9645 11.1411V16.3249H22.4791V11.6936C22.4791 11.2235 22.3601 10.8575 22.122 10.5958C21.8887 10.3292 21.5596 10.1959 21.1349 10.1959C20.7148 10.1959 20.3741 10.3413 20.1127 10.6321C19.8513 10.9229 19.7206 11.2986 19.7206 11.7591V16.3249H17.2422Z" fill="black"/>
<path d="M12.7395 9.89076C12.3428 9.89076 12.0091 10.0289 11.7383 10.3052C11.4676 10.5815 11.3159 10.9353 11.2833 11.3667H14.1818C14.1584 10.9207 14.0137 10.5645 13.7477 10.2979C13.4863 10.0265 13.1503 9.89076 12.7395 9.89076ZM14.2378 13.7805H16.4782C16.3568 14.6093 15.9624 15.2709 15.295 15.7653C14.6322 16.2549 13.7967 16.4996 12.7885 16.4996C11.5563 16.4996 10.5901 16.1288 9.89003 15.3872C9.1899 14.6457 8.83984 13.6229 8.83984 12.3191C8.83984 11.0153 9.18757 9.98043 9.88302 9.2146C10.5785 8.44393 11.519 8.05859 12.7045 8.05859C13.8667 8.05859 14.7932 8.42697 15.484 9.16371C16.1794 9.8956 16.5272 10.8771 16.5272 12.1083V12.8426H11.2553V13.0025C11.2553 13.4969 11.4 13.8992 11.6893 14.2094C11.9787 14.5148 12.3568 14.6675 12.8235 14.6675C13.1689 14.6675 13.4676 14.5899 13.7197 14.4348C13.9717 14.2749 14.1444 14.0567 14.2378 13.7805Z" fill="black"/>
<path d="M2.68565 7.84889V10.8298H4.20492C4.67633 10.8298 5.04506 10.6965 5.31111 10.4299C5.57715 10.1633 5.71018 9.80222 5.71018 9.34661C5.71018 8.89584 5.57249 8.53473 5.29711 8.2633C5.02173 7.98703 4.65533 7.84889 4.19792 7.84889H2.68565ZM2.68565 12.6547V16.3263H0.116211V5.83496H4.45696C5.70784 5.83496 6.66701 6.1379 7.33446 6.74377C8.00191 7.34965 8.33563 8.20029 8.33563 9.29571C8.33563 9.9549 8.18394 10.5535 7.88055 11.0915C7.57717 11.6247 7.15476 12.0149 6.61333 12.2621L8.62968 16.3263H5.74518L4.01588 12.6547H2.68565Z" fill="black"/>
<path d="M56.3697 0.681003C55.8207 2.6117 54.3568 4.13371 52.4999 4.70219C52.267 4.77406 52.267 5.1141 52.4999 5.18597C54.3558 5.75445 55.8207 7.27646 56.3697 9.20715C56.4383 9.44849 56.77 9.44849 56.8397 9.20715C57.3886 7.27646 58.8526 5.75445 60.7095 5.18597C60.9424 5.1141 60.9424 4.77406 60.7095 4.70219C58.8536 4.13371 57.3886 2.6117 56.8397 0.681003C56.771 0.439666 56.4394 0.439666 56.3697 0.681003Z" fill="url(#paint0_linear_2431_10114)"/>
<defs>
<linearGradient id="paint0_linear_2431_10114" x1="56.6047" y1="-0.0591749" x2="53.059" y2="8.79105" gradientUnits="userSpaceOnUse">
<stop stop-color="#21FFB4"/>
<stop offset="1" stop-color="#0080FF"/>
</linearGradient>
</defs>
</svg>
