<svg viewBox="0 0 62 32" fill="none" xmlns="http://www.w3.org/2000/svg">
<path d="M50.4116 32H45.8594L50.1546 23.1401L42.5186 8.23453H47.3278L52.4674 18.9359L57.2766 8.23453H61.792L50.4116 32Z" fill="currentColor"/>
<path d="M40.9714 8.23453L33.6292 15.392L41.1183 25.1553H35.9053L30.6556 18.241L28.4529 20.43V25.1553H24.2311V3.82255e-07H28.4529V15.0793L35.3179 8.23453H40.9714Z" fill="currentColor"/>
<path d="M19.7317 6.28882L15.7669 7.47014C15.5099 5.94137 14.1516 3.68295 10.664 3.68295C8.02078 3.68295 6.18522 5.35071 6.18522 7.22693C6.18522 8.79045 7.21314 9.97177 9.23225 10.3887L12.9768 11.1184C17.5657 11.987 20.0254 14.7318 20.0254 18.2063C20.0254 22.0282 16.7581 25.6764 10.8108 25.6764C4.20281 25.6764 1.15578 21.646 0.751953 18.1021L4.86362 16.9902C5.12059 19.5613 7.06629 21.924 10.8108 21.924C13.9313 21.924 15.5466 20.43 15.5466 18.519C15.5466 16.9207 14.2984 15.6352 12.059 15.1835L8.3879 14.4539C4.42308 13.6895 1.77987 11.2226 1.77987 7.53963C1.77987 3.40499 5.7814 0 10.6273 0C16.7581 0 19.1443 3.54397 19.7317 6.28882Z" fill="currentColor"/>
</svg>
