<svg viewBox="0 0 37 37" fill="none" xmlns="http://www.w3.org/2000/svg">
<path d="M22.7662 20.3052H35.7103C36.2082 20.3052 36.3085 19.6273 35.8558 19.4203L22.767 13.4589V0.464191C22.767 -0.0208513 22.1183 -0.180009 21.8944 0.250288L16.5135 10.6109L10.5508 7.87233C9.98029 7.64193 9.62996 8.10644 9.82356 8.50564L13.3793 15.8402H0.435112C-0.0627438 15.8402 -0.163079 16.5181 0.289681 16.7252L13.3785 22.6866V35.6813C13.3785 36.1663 14.0272 36.3254 14.2511 35.8952L19.632 25.5345L25.5947 28.2731C26.1652 28.5035 26.5155 28.0391 26.3219 27.6398L22.7662 20.3052Z" fill="url(#paint0_linear_101_5253)"/>
<defs>
<linearGradient id="paint0_linear_101_5253" x1="29.1328" y1="9.58955" x2="5.82616" y2="27.466" gradientUnits="userSpaceOnUse">
<stop stop-color="#FA43BD"/>
<stop offset="1" stop-color="#FFA930"/>
</linearGradient>
</defs>
</svg>
