<svg viewBox="0 0 104 37" fill="none" xmlns="http://www.w3.org/2000/svg">
<path d="M40.9272 18.8525C40.9272 22.7557 38.6457 25.7973 34.7424 25.7973C30.7381 25.7973 28.5581 22.8571 28.5581 18.8525C28.5581 14.7972 30.8901 11.8571 34.7424 11.8571C38.6457 11.8571 40.9272 14.9492 40.9272 18.8525ZM44.8304 18.8525C44.8304 12.9723 41.3832 8.46074 35.3002 8.46074C32.7657 8.46074 30.1802 9.57601 28.8623 11.7557V8.76496H25.0098V37H28.8623V26.0507C30.0789 28.1797 32.5628 29.1935 35.0973 29.1935C41.4341 29.1935 44.8304 24.5299 44.8304 18.8525ZM91.6588 19.2581L98.8566 28.8894H103.673L94.4464 16.622L102.912 8.76496H97.8937L89.1242 16.8249V0.350159H85.221V28.8894H89.1242V21.5898L91.6588 19.2581ZM63.5722 18.8525C63.5722 22.6543 61.4937 25.7973 57.3882 25.7973C53.3832 25.7973 51.2035 22.8571 51.2035 18.8525C51.2035 14.8986 53.4341 11.8571 57.3882 11.8571C61.0886 11.8571 63.5722 14.5944 63.5722 18.8525ZM63.2682 8.76496V11.4516C61.8486 9.57601 59.3141 8.46074 56.9315 8.46074C51.0006 8.46074 47.3002 12.6682 47.3002 18.8525C47.3002 24.8848 50.8486 29.1935 56.9824 29.1935C59.4159 29.1935 62.2544 28.1797 63.2682 26.1521V28.8894H67.1206V8.76496H63.2682ZM77.2624 9.67739C76.4006 10.3364 75.7417 11.2995 75.2857 12.6682V8.76496H71.4326V28.8894H75.2857V19.8156C75.2857 17.3825 75.6908 15.5068 76.4006 14.1889C77.1606 12.8202 78.4282 12.1106 80.1519 12.1106H83.0915V8.76496H80.6588C79.2392 8.76496 78.1242 9.0691 77.2624 9.67739ZM21.6641 21.2857C21.6641 15.5069 17.3554 14.1889 12.4383 12.8202C9.75166 12.2119 5.74701 11.4009 5.74701 8.1059C5.74701 5.3686 8.63646 4.30409 11.4245 4.30409C14.5673 4.30409 17.0512 6.07827 17.4061 9.22118H21.4613C21.2079 3.99993 17.1019 0.654304 11.4752 0.654304C6.50738 0.654304 1.64104 3.08749 1.53966 8.05521C1.53966 13.5806 5.7977 15.0506 10.7148 16.3686C13.0466 17.0276 17.5581 18.0922 17.5581 21.3364C17.5581 24.3778 14.3138 25.5438 11.2724 25.5438C7.52126 25.5438 4.98665 23.2626 4.73319 19.5115H0.576538C0.779299 25.0369 4.47974 29.1935 11.2217 29.1935C16.5443 29.1935 21.6641 27.0138 21.6641 21.2857Z" fill="currentColor"/>
</svg>
