<svg viewBox="0 0 24 24" fill="none" xmlns="http://www.w3.org/2000/svg">
<path d="M12 0C18.6274 0 24 5.37258 24 12C24 18.6274 18.6274 24 12 24C5.37258 24 0 18.6274 0 12C0 5.37258 5.37258 0 12 0ZM12.3857 4.5C10.7823 4.50006 9.42977 4.86167 8.43652 5.63574C7.42585 6.42347 6.87692 7.56881 6.76367 8.93848C6.63992 10.4364 7.3659 11.5867 8.29688 12.4189C9.21543 13.24 10.3915 13.8099 11.3574 14.1963C12.2295 14.5451 12.884 14.9651 13.3086 15.3896C13.7349 15.8159 13.8857 16.1988 13.8857 16.5C13.8857 17.0025 13.798 17.5703 13.5039 17.9951C13.2447 18.3694 12.7447 18.75 11.6357 18.75C10.8776 18.7498 10.0266 18.2562 9.30957 17.5566C8.9643 17.2198 8.68351 16.8664 8.49414 16.5674C8.39927 16.4176 8.33385 16.2922 8.29492 16.1982C8.25009 16.09 8.26074 16.0739 8.26074 16.125H6.76074C6.76074 16.3636 6.83508 16.5936 6.90918 16.7725C6.9892 16.9656 7.09877 17.1684 7.22656 17.3701C7.48248 17.7742 7.83933 18.2178 8.2627 18.6309C9.08299 19.431 10.2943 20.2498 11.6357 20.25C13.2452 20.25 14.7669 19.8418 15.8867 19.0176C17.0309 18.1753 17.7322 16.9082 17.6348 15.3291C17.5923 14.6421 17.2819 14.0252 16.9141 13.5186C16.5429 13.0073 16.0752 12.555 15.6338 12.1865C15.1894 11.8155 14.7521 11.5129 14.4277 11.3037C14.265 11.1988 14.1288 11.1166 14.0322 11.0596C13.9838 11.031 13.9452 11.0086 13.918 10.9932C13.9045 10.9855 13.8935 10.9799 13.8857 10.9756C13.8819 10.9734 13.8783 10.971 13.876 10.9697C13.875 10.9692 13.8737 10.9691 13.873 10.9688L13.8721 10.9678L13.8584 10.96L13.8457 10.9541L13.8418 10.9521C13.8377 10.9501 13.8306 10.9462 13.8213 10.9414C13.8026 10.9318 13.7739 10.9167 13.7363 10.8965C13.6609 10.8559 13.5504 10.7951 13.416 10.7158C13.1459 10.5564 12.7842 10.3267 12.415 10.0449C12.0435 9.76129 11.6805 9.43629 11.3955 9.09082C11.1075 8.74163 10.9307 8.40935 10.8721 8.10742C10.7415 7.43465 10.9136 6.9444 11.1943 6.61133C11.4835 6.26851 11.9298 6.0444 12.4219 6C13.7029 6.00877 14.6354 6.48818 15.248 7.0625C15.8988 7.67261 16.1357 8.33171 16.1357 8.625H17.6357C17.6357 7.79339 17.1234 6.76485 16.2744 5.96875C15.3928 5.14223 14.0862 4.5 12.3857 4.5ZM9.45801 6.74512C9.31295 7.24035 9.28368 7.79591 9.39941 8.39258C9.52273 9.02803 9.85951 9.58666 10.2383 10.0459C10.6202 10.5089 11.0783 10.9107 11.5049 11.2363C11.9339 11.5638 12.3485 11.8264 12.6543 12.0068C12.8077 12.0973 12.9348 12.169 13.0254 12.2178C13.0708 12.2422 13.1072 12.2612 13.1328 12.2744C13.1418 12.279 13.1499 12.2819 13.1562 12.2852H13.1553C13.1598 12.2877 13.1675 12.2921 13.1777 12.2979C13.1982 12.3095 13.2299 12.3276 13.2705 12.3516C13.3522 12.3998 13.4714 12.4717 13.6152 12.5645C13.9047 12.7511 14.2888 13.0173 14.6729 13.3379C15.0599 13.661 15.4273 14.0244 15.7002 14.4004C15.9765 14.781 16.1193 15.1247 16.1377 15.4209C16.193 16.3153 15.871 17.0354 15.2725 17.583C15.361 17.1828 15.3857 16.8045 15.3857 16.5C15.3857 15.6762 14.9741 14.9341 14.3691 14.3291C13.7625 13.7226 12.9175 13.2048 11.915 12.8037C11.0061 12.4401 10.0211 11.9481 9.29688 11.3008C8.58506 10.6645 8.18621 9.93935 8.25879 9.06152C8.34348 8.03795 8.73151 7.30812 9.3584 6.81934C9.39058 6.79425 9.42411 6.76926 9.45801 6.74512Z" fill="url(#paint0_linear_24_2866)"/>
<defs>
<linearGradient id="paint0_linear_24_2866" x1="12" y1="0" x2="12" y2="24" gradientUnits="userSpaceOnUse">
<stop stop-color="#F0916A"/>
<stop offset="1" stop-color="#F6C859"/>
</linearGradient>
</defs>
</svg>
