<svg width="110" height="24" viewBox="0 0 110 24" fill="none" xmlns="http://www.w3.org/2000/svg">
<path d="M100.42 0.169922C100.832 0.169922 101.203 0.423187 101.353 0.807617L109.838 22.6348C110.093 23.2903 109.609 23.9971 108.905 23.9971H105.132C104.716 23.9968 104.343 23.739 104.196 23.3496L102.713 19.4102L100.926 14.585L98.2451 7.49707L95.9473 13.5723H98.8213C99.5128 13.5723 99.9963 14.2579 99.7637 14.9092L98.6162 18.1211C98.4741 18.5188 98.0971 18.785 97.6748 18.7852H94.0088L93.7773 19.4102L92.2939 23.3496C92.1472 23.7389 91.7745 23.9969 91.3584 23.9971H87.5527C86.8503 23.9967 86.3665 23.2908 86.6201 22.6357L95.0791 0.808594C95.2282 0.423862 95.5982 0.170222 96.0107 0.169922H100.42Z" fill="#0B1129"/>
<path d="M64.5171 23.9973C63.9648 23.9973 63.5171 23.5496 63.5171 22.9973V1.16992C63.5171 0.617638 63.9648 0.169922 64.5171 0.169922H76.4732C81.0302 0.169922 84.2171 3.26748 84.2171 7.70534C84.2171 11.0412 82.2812 13.7515 79.3325 14.8238L84.3099 22.4508C84.744 23.116 84.2667 23.9973 83.4725 23.9973H79.3154C78.9736 23.9973 78.6555 23.8227 78.4719 23.5344L73.2863 15.3897H69.325V22.9973C69.325 23.5496 68.8773 23.9973 68.325 23.9973H64.5171ZM69.325 10.1774H76.1158C77.4859 10.1774 78.4092 9.19455 78.4092 7.79469C78.4092 6.36505 77.4859 5.38217 76.1158 5.38217H69.325V10.1774Z" fill="#0B1129"/>
<path d="M50.0256 23.9973C49.4734 23.9973 49.0257 23.5496 49.0257 22.9973V5.38217H42.977C42.2591 5.38217 41.775 4.64812 42.0578 3.98825L43.4345 0.776003C43.5921 0.40832 43.9536 0.169922 44.3537 0.169922H60.535C61.0873 0.169922 61.535 0.617637 61.535 1.16992V4.38217C61.535 4.93445 61.0873 5.38217 60.535 5.38217H54.8038V22.9973C54.8038 23.5496 54.3561 23.9973 53.8038 23.9973H50.0256Z" fill="#0B1129"/>
<path d="M26.5044 23.9973C25.9521 23.9973 25.5044 23.5496 25.5044 22.9973V1.16992C25.5044 0.617638 25.9521 0.169922 26.5044 0.169922H40.161C40.8789 0.169922 41.3629 0.90382 41.0802 1.56367L39.7043 4.77591C39.5468 5.14369 39.1852 5.38217 38.7851 5.38217H31.3135L31.3123 9.22434H36.2226C36.9182 9.22434 37.4013 9.91703 37.161 10.5699L36.0221 13.663C35.8773 14.0562 35.5027 14.3174 35.0837 14.3174H31.3123V18.9042H39.9326C40.4849 18.9042 40.9326 19.3519 40.9326 19.9042V22.9973C40.9326 23.5496 40.4849 23.9973 39.9326 23.9973H26.5044Z" fill="#0B1129"/>
<path d="M10.4249 23.9973C10.0121 23.9973 9.64164 23.7436 9.49247 23.3586L1.03435 1.53124C0.780394 0.875879 1.26394 0.169922 1.96679 0.169922H5.77319C6.1888 0.169922 6.56108 0.426981 6.70833 0.815627L11.7237 14.0533C12.0499 14.9142 13.2678 14.9142 13.5939 14.0533L18.6093 0.815627C18.7565 0.426981 19.1288 0.169922 19.5444 0.169922H23.3193C24.0227 0.169922 24.5062 0.876736 24.2514 1.53226L15.766 23.3597C15.6165 23.7441 15.2464 23.9973 14.8339 23.9973H10.4249Z" fill="#0B1129"/>
</svg>
