<svg width="150" height="31" viewBox="0 0 150 31" fill="none" xmlns="http://www.w3.org/2000/svg">
<path d="M140.42 4.16992C140.832 4.16992 141.203 4.42319 141.353 4.80762L149.838 26.6348C150.093 27.2903 149.609 27.9971 148.905 27.9971H145.132C144.716 27.9968 144.343 27.739 144.196 27.3496L142.713 23.4102L140.926 18.585L138.245 11.4971L135.947 17.5723H138.821C139.513 17.5723 139.996 18.2579 139.764 18.9092L138.616 22.1211C138.474 22.5188 138.097 22.785 137.675 22.7852H134.009L133.777 23.4102L132.294 27.3496C132.147 27.7389 131.774 27.9969 131.358 27.9971H127.553C126.85 27.9967 126.367 27.2908 126.62 26.6357L135.079 4.80859C135.228 4.42386 135.598 4.17022 136.011 4.16992H140.42Z" fill="#0B1129"/>
<path d="M104.517 27.9973C103.965 27.9973 103.517 27.5496 103.517 26.9973V5.16992C103.517 4.61764 103.965 4.16992 104.517 4.16992H116.473C121.03 4.16992 124.217 7.26748 124.217 11.7053C124.217 15.0412 122.281 17.7515 119.333 18.8238L124.31 26.4508C124.744 27.116 124.267 27.9973 123.472 27.9973H119.315C118.974 27.9973 118.655 27.8227 118.472 27.5344L113.286 19.3897H109.325V26.9973C109.325 27.5496 108.877 27.9973 108.325 27.9973H104.517ZM109.325 14.1774H116.116C117.486 14.1774 118.409 13.1946 118.409 11.7947C118.409 10.365 117.486 9.38217 116.116 9.38217H109.325V14.1774Z" fill="#0B1129"/>
<path d="M90.0256 27.9973C89.4734 27.9973 89.0257 27.5496 89.0257 26.9973V9.38217H82.977C82.2591 9.38217 81.775 8.64812 82.0578 7.98825L83.4345 4.776C83.5921 4.40832 83.9536 4.16992 84.3537 4.16992H100.535C101.087 4.16992 101.535 4.61764 101.535 5.16992V8.38217C101.535 8.93445 101.087 9.38217 100.535 9.38217H94.8038V26.9973C94.8038 27.5496 94.3561 27.9973 93.8038 27.9973H90.0256Z" fill="#0B1129"/>
<path d="M66.5044 27.9973C65.9521 27.9973 65.5044 27.5496 65.5044 26.9973V5.16992C65.5044 4.61764 65.9521 4.16992 66.5044 4.16992H80.161C80.8789 4.16992 81.3629 4.90382 81.0802 5.56367L79.7043 8.77591C79.5468 9.14369 79.1852 9.38217 78.7851 9.38217H71.3135L71.3123 13.2243H76.2226C76.9182 13.2243 77.4013 13.917 77.161 14.5699L76.0221 17.663C75.8773 18.0562 75.5027 18.3174 75.0837 18.3174H71.3123V22.9042H79.9326C80.4849 22.9042 80.9326 23.3519 80.9326 23.9042V26.9973C80.9326 27.5496 80.4849 27.9973 79.9326 27.9973H66.5044Z" fill="#0B1129"/>
<path d="M50.4249 27.9973C50.0121 27.9973 49.6416 27.7436 49.4925 27.3586L41.0343 5.53124C40.7804 4.87588 41.2639 4.16992 41.9668 4.16992H45.7732C46.1888 4.16992 46.5611 4.42698 46.7083 4.81563L51.7237 18.0533C52.0499 18.9142 53.2678 18.9142 53.5939 18.0533L58.6093 4.81563C58.7565 4.42698 59.1288 4.16992 59.5444 4.16992H63.3193C64.0227 4.16992 64.5062 4.87674 64.2514 5.53226L55.766 27.3597C55.6165 27.7441 55.2464 27.9973 54.8339 27.9973H50.4249Z" fill="#0B1129"/>
<path d="M0 18.4821C0 17.2515 0.997586 16.2539 2.22817 16.2539H3.58099C9.73391 16.2539 14.7218 21.2418 14.7218 27.3948V28.7476C14.7218 29.9782 13.7243 30.9757 12.4937 30.9757H2.22817C0.997585 30.9757 0 29.9782 0 28.7476V18.4821Z" fill="#38C780"/>
<path d="M0 2.22817C0 0.997585 0.997586 0 2.22817 0H12.4937C13.7243 0 14.7218 0.997586 14.7218 2.22817V3.58099C14.7218 9.73391 9.73391 14.7218 3.58099 14.7218H2.22817C0.997585 14.7218 0 13.7243 0 12.4937V2.22817Z" fill="#38C780"/>
<path d="M16.2539 27.3948C16.2539 21.2418 21.2418 16.2539 27.3948 16.2539H28.7476C29.9782 16.2539 30.9757 17.2515 30.9757 18.4821V28.7476C30.9757 29.9782 29.9782 30.9757 28.7476 30.9757H18.4821C17.2515 30.9757 16.2539 29.9782 16.2539 28.7476V27.3948Z" fill="#38C780"/>
<path d="M16.2539 2.22817C16.2539 0.997585 17.2515 0 18.4821 0H28.7476C29.9782 0 30.9757 0.997586 30.9757 2.22817V12.4937C30.9757 13.7243 29.9782 14.7218 28.7476 14.7218H27.3948C21.2418 14.7218 16.2539 9.73391 16.2539 3.58099V2.22817Z" fill="#38C780"/>
</svg>
