<svg width="204.8" height="34.4004" overflow="visible" style="display: block;" viewBox="0 0 204.8 34.4004" fill="none" xmlns="http://www.w3.org/2000/svg">
<!-- Icon (all white) -->
<g transform="translate(0,0) scale(0.78182)">
<path d="M0 26.3481C0 24.6095 1.40946 23.2 3.14811 23.2H5.05946C13.7527 23.2 20.8 30.2473 20.8 38.9405V40.8519C20.8 42.5905 19.3905 44 17.6519 44H3.14811C1.40945 44 0 42.5905 0 40.8519V26.3481Z" fill="#FFFFFF"/>
<path d="M1.52588e-06 3.14811C1.52588e-06 1.40945 1.40946 0 3.14811 0H17.6519C19.3905 0 20.8 1.40946 20.8 3.14811V5.05946C20.8 13.7527 13.7527 20.8 5.05946 20.8H3.14811C1.40946 20.8 1.52588e-06 19.3905 1.52588e-06 17.6519V3.14811Z" fill="#FFFFFF"/>
<path d="M23.2 38.9405C23.2 30.2473 30.2473 23.2 38.9405 23.2H40.8519C42.5905 23.2 44 24.6095 44 26.3481V40.8519C44 42.5905 42.5905 44 40.8519 44H26.3481C24.6095 44 23.2 42.5905 23.2 40.8519V38.9405Z" fill="#FFFFFF"/>
<path d="M23.2 3.14811C23.2 1.40945 24.6095 0 26.3481 0H40.8519C42.5905 0 44 1.40946 44 3.14811V17.6519C44 19.3905 42.5905 20.8 40.8519 20.8H38.9405C30.2473 20.8 23.2 13.7527 23.2 5.05946V3.14811Z" fill="#FFFFFF"/>
</g>
<!-- Wordmark (all white) -->
<g transform="translate(48,0)">
<path d="M89.4878 34.4C89.1079 34.4 88.8 34.0872 88.8 33.7013V0.698754C88.8 0.312846 89.1079 6.10352e-06 89.4878 6.10352e-06H107.211C113.687 6.10352e-06 118.215 4.47201 118.215 10.879C118.215 15.3804 115.812 19.0929 112.076 20.8228C111.673 21.0095 111.506 21.5166 111.748 21.8936L119.087 33.3194C119.386 33.7842 119.057 34.4 118.511 34.4H110.847C110.612 34.4 110.393 34.278 110.267 34.0765L102.885 22.2965C102.759 22.095 102.54 21.973 102.305 21.973H97.741C97.3611 21.973 97.0532 22.2858 97.0532 22.6718V33.7013C97.0532 34.0872 96.7453 34.4 96.3654 34.4H89.4878ZM97.0532 13.7493C97.0532 14.1352 97.3611 14.448 97.741 14.448H106.703C108.65 14.448 109.962 13.029 109.962 11.008C109.962 8.94401 108.65 7.52501 106.703 7.52501H97.741C97.3611 7.52501 97.0532 7.83785 97.0532 8.22375V13.7493Z" fill="#FFFFFF"/>
<path d="M68.9307 34.4C68.5424 34.4 68.2276 34.0872 68.2276 33.7013V8.22375C68.2276 7.83785 67.9128 7.52501 67.5245 7.52501H58.3039C57.7991 7.52501 57.4588 7.01209 57.6576 6.55101L60.3 0.423503C60.4108 0.166585 60.665 6.10352e-06 60.9463 6.10352e-06H85.6969C86.0852 6.10352e-06 86.4 0.312846 86.4 0.698753V6.82626C86.4 7.21217 86.0852 7.52501 85.6969 7.52501H77.3246C76.9363 7.52501 76.6215 7.83785 76.6215 8.22375V33.7013C76.6215 34.0872 76.3067 34.4 75.9184 34.4H68.9307Z" fill="#FFFFFF"/>
<path d="M35.8808 34.4C35.5048 34.4 35.2 34.0872 35.2 33.7013V0.698754C35.2 0.312846 35.5048 6.10352e-06 35.8808 6.10352e-06H56.9184C57.4072 6.10352e-06 57.7367 0.512815 57.5443 0.973881L54.9868 7.10139C54.8796 7.35837 54.6334 7.52501 54.361 7.52501H44.0524C43.6765 7.52501 43.3717 7.83772 43.3716 8.22354L43.3704 12.373C43.3702 12.759 43.6751 13.072 44.0512 13.072H51.3183C51.7919 13.072 52.1208 13.556 51.9572 14.0122L49.8206 19.9677C49.722 20.2425 49.467 20.425 49.1817 20.425H44.051C43.675 20.425 43.3702 20.7378 43.3702 21.1238V26.3483C43.3702 26.7342 43.675 27.047 44.051 27.047H56.2224C56.5985 27.047 56.9033 27.3598 56.9033 27.7458V33.7013C56.9033 34.0872 56.5985 34.4 56.2224 34.4H35.8808Z" fill="#FFFFFF"/>
<path d="M13.1733 34.4C12.8916 34.4 12.6388 34.2227 12.537 33.9537L0.0467507 0.951217C-0.12656 0.493283 0.203437 0 0.683096 0H7.61495C7.89858 0 8.15264 0.179619 8.25313 0.451185L16.1834 21.8823C16.406 22.4839 17.2372 22.4839 17.4598 21.8823L25.39 0.451184C25.4905 0.179619 25.7446 0 26.0282 0H32.9169C33.3969 0 33.7269 0.493884 33.553 0.951927L21.0225 33.9544C20.9205 34.2231 20.6679 34.4 20.3864 34.4H13.1733Z" fill="#FFFFFF"/>
<path d="M142.997 0.000396729C143.263 0.000396729 143.502 0.160242 143.599 0.403028L156.756 33.5403C156.92 33.9541 156.608 34.4003 156.154 34.4004H148.804C148.536 34.4004 148.295 34.2375 148.2 33.9916L145.81 27.7783L143.175 20.8121L139.223 10.5779L136.017 18.8772H141.25C141.696 18.8772 142.007 19.3096 141.857 19.7207L139.573 25.9834C139.481 26.2346 139.238 26.4026 138.965 26.4026H133.155L132.635 27.7783L130.245 33.9916C130.151 34.2376 129.91 34.4004 129.641 34.4004H122.246C121.792 34.4004 121.48 33.9546 121.644 33.5409L134.759 0.403645C134.855 0.16056 135.094 0.00044518 135.361 0.000396729H142.997Z" fill="#FFFFFF"/>
</g>
</svg>
