<svg width="1667" height="782" viewBox="0 0 1667 782" fill="none" xmlns="http://www.w3.org/2000/svg">
<g clip-path="url(#clip0_3849_2641)">
<path d="M821.987 261.271C800.189 261.368 778.392 261.707 756.602 262.31C730.936 263.029 705.281 264.098 679.646 265.546C657.558 266.795 635.485 268.324 613.436 270.139C589.135 272.152 564.862 274.512 540.633 277.262C519.92 279.616 499.241 282.26 478.604 285.203C462.293 287.542 446.01 290.074 429.762 292.815C408.522 296.413 387.342 300.369 366.252 304.764C348.294 308.503 330.402 312.563 312.6 316.985C296.396 321.021 280.266 325.359 264.245 330.068C249.341 334.456 234.529 339.158 219.856 344.265C208.273 348.293 196.78 352.581 185.404 357.159C175.226 361.273 165.142 365.62 155.2 370.276C146.9 374.167 138.696 378.265 130.634 382.63C123.003 386.757 115.5 391.126 108.179 395.783C102.999 399.085 97.9031 402.523 92.9452 406.151C87.8521 409.861 82.9021 413.769 78.1325 417.887C74.4644 421.072 70.8932 424.373 67.4944 427.845C64.6204 430.756 61.8629 433.783 59.2491 436.93C56.7662 439.903 54.418 442.991 52.232 446.189C50.3669 448.919 48.6245 451.733 47.0275 454.629C45.6772 457.091 44.4292 459.61 43.3082 462.184C42.124 464.93 41.0692 467.733 40.1987 470.595C39.4152 473.104 38.801 475.663 38.2835 478.239C37.9098 480.26 37.6108 482.291 37.3899 484.334C37.1562 486.859 37.017 489.396 37.0575 491.933C37.0859 494.723 37.2943 497.511 37.6695 500.276C37.9779 502.625 38.4362 504.953 38.9711 507.26C39.6074 509.852 40.3564 512.418 41.258 514.93C42.2683 517.791 43.4534 520.587 44.7684 523.32C46.0303 525.923 47.4119 528.469 48.9024 530.948C50.6507 533.856 52.5459 536.674 54.5545 539.408C56.9792 542.703 59.5724 545.871 62.2883 548.929C65.2148 552.21 68.2869 555.358 71.4665 558.394C74.8751 561.633 78.4109 564.737 82.0354 567.733C86.9232 571.74 91.9677 575.555 97.148 579.177C102.32 582.804 107.617 586.252 113.004 589.551C120.605 594.212 128.39 598.569 136.29 602.7C144.61 607.043 153.062 611.129 161.613 614.997C173.029 620.169 184.616 624.959 196.315 629.452C208.815 634.256 221.447 638.712 234.166 642.9C248.665 647.667 263.279 652.077 277.975 656.195C295.407 661.076 312.953 665.545 330.577 669.675C350.458 674.331 370.44 678.553 390.49 682.415C412.549 686.658 434.691 690.461 456.891 693.889C483.601 698.007 510.394 701.578 537.242 704.671C563.347 707.674 589.502 710.228 615.692 712.366C644.598 714.725 673.545 716.583 702.514 717.967C732.213 719.386 761.935 720.314 791.664 720.759C821.476 721.205 851.296 721.171 881.107 720.653C910.484 720.145 939.853 719.163 969.198 717.701C996.88 716.323 1024.54 714.504 1052.16 712.237C1076.77 710.208 1101.35 707.816 1125.88 705.031C1146.53 702.679 1167.14 700.046 1187.72 697.109C1204.05 694.769 1220.35 692.23 1236.62 689.486C1255.1 686.353 1273.53 682.95 1291.9 679.226C1312.28 675.086 1332.58 670.564 1352.76 665.556C1369.33 661.45 1385.82 657.012 1402.2 652.2C1417.06 647.82 1431.83 643.13 1446.46 638.036C1458 634.019 1469.46 629.751 1480.79 625.185C1491.11 621.022 1501.33 616.603 1511.41 611.88C1520.4 607.654 1529.28 603.191 1537.99 598.399C1544.82 594.648 1551.55 590.691 1558.13 586.505C1563.98 582.779 1569.71 578.87 1575.27 574.728C1579.41 571.654 1583.44 568.434 1587.36 565.094C1591.12 561.861 1594.77 558.513 1598.25 554.995C1601.72 551.498 1605.04 547.851 1608.13 544.021C1610.2 541.474 1612.17 538.841 1614.02 536.133C1615.89 533.401 1617.63 530.588 1619.23 527.692C1620.58 525.231 1621.83 522.712 1622.95 520.138C1624.13 517.391 1625.19 514.588 1626.06 511.727C1626.84 509.218 1627.45 506.658 1627.97 504.082C1628.34 502.062 1628.64 500.03 1628.87 497.987C1629.1 495.462 1629.24 492.925 1629.2 490.389C1629.17 487.598 1628.96 484.811 1628.59 482.046C1628.28 479.675 1627.81 477.327 1627.27 474.998C1626.62 472.386 1625.87 469.798 1624.95 467.268C1623.94 464.407 1622.74 461.616 1621.43 458.882C1620.15 456.265 1618.76 453.697 1617.25 451.206C1615.49 448.281 1613.57 445.454 1611.55 442.7C1609.16 439.487 1606.63 436.385 1603.97 433.394C1601.04 430.112 1597.97 426.965 1594.79 423.929C1590.48 419.844 1585.99 415.958 1581.34 412.27C1577.04 408.832 1572.6 405.578 1568.09 402.423C1562.42 398.512 1556.63 394.779 1550.72 391.236C1543.85 387.102 1536.84 383.212 1529.73 379.499C1520.48 374.677 1511.06 370.171 1501.52 365.923C1490.92 361.197 1480.17 356.789 1469.33 352.633C1456.82 347.845 1444.19 343.393 1431.46 339.219C1417.07 334.492 1402.55 330.127 1387.96 326.037C1370.53 321.168 1352.98 316.694 1335.36 312.573C1315.52 307.93 1295.58 303.723 1275.57 299.87C1256.54 296.21 1237.45 292.883 1218.31 289.833C1195.06 286.14 1171.75 282.868 1148.39 279.966C1124.09 276.955 1099.74 274.348 1075.36 272.105C1046.97 269.501 1018.54 267.39 990.078 265.746C964.04 264.237 937.98 263.126 911.909 262.374C882.39 261.533 852.857 261.167 823.325 261.268C822.879 261.269 822.433 261.27 821.987 261.271Z" fill="#87D6BE"/>
<path d="M1407.1 413.436L219.893 414.314C212.325 414.322 204.946 416.69 198.787 421.089C192.627 425.487 187.992 431.697 185.527 438.854C183.063 446.01 182.891 453.757 185.037 461.016C187.182 468.274 191.538 474.683 197.497 479.35L322.352 577.072L521.659 733.066C528.06 738.077 535.954 740.8 544.083 740.801H1074.61C1082.61 740.8 1090.38 738.166 1096.73 733.305L1429.25 478.707C1435.29 474.081 1439.72 467.679 1441.93 460.401C1444.14 453.123 1444.02 445.335 1441.58 438.131C1439.13 430.928 1434.49 424.672 1428.31 420.242C1422.12 415.812 1414.71 413.432 1407.1 413.436Z" fill="#79C0AB"/>
<path d="M527.659 36.2647C401.863 36.2647 281.192 97.4115 218.66 210.713C156.129 324.015 174.512 464.953 262.394 464.761H527.659H792.924C880.806 464.953 899.189 324.015 836.658 210.713C774.126 97.4115 653.456 36.2647 527.659 36.2647Z" fill="#FDD0A4"/>
<path d="M1097.93 36.5962C972.134 36.5962 851.463 97.743 788.932 211.045C726.4 324.347 744.783 465.284 832.666 465.092H1097.93H1363.19C1451.08 465.284 1469.46 324.347 1406.93 211.045C1344.4 97.743 1223.73 36.5962 1097.93 36.5962Z" fill="#DAB991"/>
<path d="M809.348 275.92C683.552 275.92 562.881 337.067 500.35 450.369C437.818 563.671 456.201 704.608 544.084 704.416H809.348H1074.61C1162.5 704.608 1180.88 563.671 1118.35 450.369C1055.82 337.067 935.145 275.92 809.348 275.92Z" fill="#FDFCCF"/>
<path d="M527.657 -0.119141C523.334 -0.11906 519.138 0.19868 515.003 0.65625C381.939 4.68019 254.088 71.2218 186.806 193.133C162.859 236.521 149.259 282.876 146.007 326.803C50.679 375.178 -0.346629 432.481 -0.34668 491.16C-0.346875 568.175 87.4656 642.036 243.772 696.494C400.079 750.952 612.077 781.545 833.128 781.545C871.766 781.545 910.128 780.611 947.964 778.777C1126.59 770.121 1293.5 741.433 1422.48 696.494C1578.79 642.036 1666.6 568.175 1666.6 491.16C1666.6 423.972 1599.73 358.862 1477.38 306.928C1471.95 269.166 1459.08 230.25 1438.78 193.465C1371.5 71.5538 1243.65 5.01221 1110.58 0.988281C1106.45 0.530771 1102.25 0.21292 1097.93 0.21289H1097.93C1093.61 0.21297 1089.41 0.530711 1085.27 0.988281C983.062 4.07925 883.925 44.0592 812.954 117.688C741.961 43.8473 642.68 3.75151 540.313 0.65625C536.178 0.198759 531.982 -0.119141 527.659 -0.119141H527.657ZM491.276 84.7422V167.555C491.276 175.238 493.708 182.724 498.224 188.939C500.468 192.029 503.184 194.746 506.272 196.99C512.489 201.506 519.976 203.938 527.659 203.937C547.753 203.937 564.042 187.648 564.042 167.555V84.7422C564.551 85.0153 565.059 85.2934 565.563 85.5742C579.954 93.5843 593.466 105.34 595.495 107.766C608.386 123.171 625.571 152.019 625.571 167.555C625.572 187.649 641.862 203.938 661.956 203.937C682.05 203.937 698.338 187.648 698.339 167.555C698.339 146.109 692.836 127.234 685.247 111.113C716.108 127.581 744.045 149.186 767.585 175.645V176.119C763.912 181.739 760.375 187.489 757.077 193.465C747.417 210.969 739.44 228.957 733.147 247.072C715.652 250.295 698.52 254.907 681.718 260.459L681.507 260.078C680.472 258.225 679.223 256.441 677.79 254.76C665.345 240.162 648.517 230.716 630.444 230.414C612.372 230.112 594.63 239.889 584.239 255.178C575.725 267.706 572.965 278.003 590.378 288.75C595.601 291.973 601.218 293.166 606.515 293.148L606.98 293.184C551.81 324.74 504.299 369.946 470.972 428.377H470.97H358.866H262.394C262.368 428.377 262.341 428.377 262.315 428.377C250.072 428.404 244.153 425.199 237.058 417.102C229.963 409.004 223.163 394.351 220.063 374.645C213.865 335.232 223.062 278.036 250.515 228.293C278.886 176.886 320.744 137.435 370.071 111.113C362.483 127.234 356.98 146.109 356.98 167.555C356.98 187.649 373.27 203.938 393.364 203.937C413.458 203.937 429.747 187.648 429.747 167.555C429.747 152.019 446.933 123.171 459.823 107.766C461.853 105.34 475.364 93.5843 489.755 85.5742C490.259 85.2934 490.767 85.0153 491.276 84.7422ZM1061.55 85.0742V167.885C1061.55 175.569 1063.98 183.055 1068.5 189.271C1070.74 192.36 1073.46 195.076 1076.54 197.32C1082.76 201.837 1090.25 204.27 1097.93 204.27C1118.03 204.269 1134.31 187.979 1134.31 167.885V85.0742C1134.82 85.3474 1135.33 85.6235 1135.83 85.9043C1150.22 93.9144 1163.74 105.672 1165.77 108.098C1178.66 123.503 1195.84 152.349 1195.84 167.885C1195.84 187.979 1212.13 204.269 1232.23 204.27C1252.32 204.269 1268.61 187.979 1268.61 167.885C1268.61 146.439 1263.11 127.566 1255.52 111.445C1304.85 137.767 1346.7 177.217 1375.08 228.625C1402.53 278.368 1411.72 335.564 1405.52 374.977C1402.43 394.683 1395.63 409.336 1388.53 417.434C1381.44 425.531 1375.52 428.736 1363.27 428.709C1363.25 428.709 1363.22 428.709 1363.19 428.709H1203.57H1147.92C1111.97 365.506 1059.57 317.516 998.685 285.764C1001.42 285.781 1003.26 287.015 1006.14 288.416C1013.88 292.182 1027.08 294.756 1038.43 287.756C1055.84 277.009 1053.08 266.71 1044.57 254.182C1034.17 238.893 1016.43 229.118 998.358 229.42C980.286 229.722 963.46 239.168 951.015 253.766C948.626 256.567 946.748 259.658 945.524 262.867C906.062 249.186 864.296 241.591 822.003 240.312C819.7 240.058 817.377 239.846 815.024 239.709C816.847 235.981 818.768 232.283 820.786 228.625C849.158 177.217 891.014 137.767 940.343 111.445C932.754 127.566 927.251 146.439 927.251 167.885C927.25 187.979 943.539 204.269 963.634 204.27C983.729 204.27 1000.02 187.98 1000.02 167.885C1000.02 152.349 1017.2 123.503 1030.09 108.098C1032.12 105.672 1045.64 93.9144 1060.03 85.9043C1060.53 85.6235 1061.04 85.3474 1061.55 85.0742ZM375.04 228.424C356.968 228.726 340.14 238.174 327.694 252.771C319.047 262.914 317.094 276.858 328.644 286.443C338.9 294.956 349.316 295.376 367.122 287.135C375.934 283.057 377.821 284.988 382.821 287.422C390.559 291.188 403.763 293.762 415.106 286.762C432.52 276.015 429.759 265.716 421.245 253.187C410.855 237.898 393.112 228.121 375.04 228.424ZM1262.39 229.42C1244.31 229.118 1226.57 238.893 1216.18 254.182C1207.67 266.71 1204.9 277.009 1222.32 287.756C1233.66 294.756 1246.86 292.182 1254.6 288.416C1259.6 285.982 1261.49 284.051 1270.3 288.129C1288.11 296.37 1298.52 295.95 1308.78 287.437C1320.33 277.852 1318.38 263.909 1309.73 253.766C1297.28 239.168 1280.46 229.722 1262.39 229.42ZM772.964 324.398V409.209C772.964 416.893 775.396 424.379 779.913 430.596C782.157 433.684 784.873 436.4 787.962 438.645C794.178 443.161 801.665 445.594 809.349 445.594C829.443 445.593 845.732 429.303 845.731 409.209V324.398C846.24 324.672 846.746 324.948 847.251 325.229C861.642 333.239 875.155 344.997 877.185 347.422C890.075 362.827 907.261 391.674 907.261 407.209C907.26 427.303 923.549 443.593 943.644 443.594C963.738 443.593 980.027 427.303 980.026 407.209C980.026 385.763 974.523 366.89 966.935 350.77C1016.26 377.091 1058.12 416.541 1086.49 467.949C1113.95 517.692 1123.14 574.889 1116.94 614.301C1113.84 634.007 1107.05 648.661 1099.95 656.758C1092.86 664.855 1086.94 668.06 1074.69 668.033C1074.67 668.033 1074.64 668.033 1074.61 668.033H809.349H544.083C544.056 668.033 544.03 668.033 544.003 668.033C531.76 668.06 525.84 664.855 518.745 656.758C511.65 648.661 504.85 634.007 501.751 614.301C495.553 574.889 504.751 517.692 532.204 467.949C560.576 416.542 602.432 377.091 651.761 350.77C644.172 366.89 638.669 385.763 638.669 407.209C638.669 427.303 654.957 443.593 675.052 443.594C695.147 443.594 711.437 427.304 711.437 407.209C711.437 391.674 728.62 362.827 741.511 347.422C743.54 344.997 757.054 333.239 771.444 325.229C771.949 324.948 772.455 324.672 772.964 324.398ZM1480.1 359.012C1575.8 397.604 1627.22 443.795 1627.22 491.162C1627.22 580.798 1444.15 662.111 1159.43 698.943C1175.54 678.119 1184.56 652.715 1188.83 625.605C1194.88 587.136 1191.18 544.224 1178.49 501.475H1178.97H1203.57H1363.11C1394.81 501.544 1424.15 487.204 1443.26 465.389C1462.38 443.574 1472.74 415.948 1477.41 386.281C1478.8 377.409 1479.7 368.3 1480.1 359.012ZM147.003 376.426C147.311 379.637 147.688 382.819 148.181 385.949C152.846 415.616 163.212 443.242 182.327 465.057C201.442 486.872 230.776 501.212 262.474 501.143H358.866H439.821C427.123 544 423.805 587.04 429.87 625.605C433.729 650.143 441.578 673.226 454.96 692.838C454.621 692.342 454.196 691.901 453.864 691.4C198.203 651.511 39.039 574.681 39.04 491.162C39.0389 450.871 76.2528 411.3 146.89 376.48L147.003 376.426ZM932.69 467.418C914.618 467.116 896.876 476.891 886.485 492.18C877.971 504.708 875.209 515.007 892.622 525.754C903.965 532.754 917.171 530.18 924.909 526.414C929.909 523.98 931.797 522.049 940.608 526.127C958.415 534.368 968.83 533.948 979.087 525.436C990.637 515.85 988.684 501.907 980.036 491.764C967.591 477.166 950.763 467.72 932.69 467.418ZM656.728 468.08C638.655 468.382 621.829 477.83 609.384 492.428C600.736 502.571 598.783 516.512 610.333 526.098C620.59 534.61 631.003 535.032 648.81 526.791C657.621 522.713 659.51 524.644 664.511 527.078C672.249 530.844 685.453 533.417 696.796 526.416C714.209 515.669 711.449 505.372 702.935 492.844C692.544 477.555 674.8 467.778 656.728 468.08Z" fill="#091A28"/>
</g>
<defs>
<clipPath id="clip0_3849_2641">
<rect width="1667" height="782" fill="white"/>
</clipPath>
</defs>
</svg>
