<svg width="44" height="44" overflow="visible" style="display: block;" viewBox="0 0 44 44" fill="none" xmlns="http://www.w3.org/2000/svg">
<g id="Group 2085662897">
<path id="Rectangle 12677" d="M0 26.3481C0 24.6095 1.40946 23.2 3.14811 23.2H5.05946C13.7527 23.2 20.8 30.2473 20.8 38.9405V40.8519C20.8 42.5905 19.3905 44 17.6519 44H3.14811C1.40945 44 0 42.5905 0 40.8519V26.3481Z" fill="var(--fill-0, #04C161)"/>
<path id="Rectangle 12678" d="M1.52588e-06 3.14811C1.52588e-06 1.40945 1.40946 0 3.14811 0H17.6519C19.3905 0 20.8 1.40946 20.8 3.14811V5.05946C20.8 13.7527 13.7527 20.8 5.05946 20.8H3.14811C1.40946 20.8 1.52588e-06 19.3905 1.52588e-06 17.6519V3.14811Z" fill="var(--fill-0, #04C161)"/>
<path id="Rectangle 12679" d="M23.2 38.9405C23.2 30.2473 30.2473 23.2 38.9405 23.2H40.8519C42.5905 23.2 44 24.6095 44 26.3481V40.8519C44 42.5905 42.5905 44 40.8519 44H26.3481C24.6095 44 23.2 42.5905 23.2 40.8519V38.9405Z" fill="var(--fill-0, #04C161)"/>
<path id="Rectangle 12680" d="M23.2 3.14811C23.2 1.40945 24.6095 0 26.3481 0H40.8519C42.5905 0 44 1.40946 44 3.14811V17.6519C44 19.3905 42.5905 20.8 40.8519 20.8H38.9405C30.2473 20.8 23.2 13.7527 23.2 5.05946V3.14811Z" fill="var(--fill-0, #04C161)"/>
</g>
</svg>
