<svg width="12" height="13" viewBox="0 0 12 13" fill="none" xmlns="http://www.w3.org/2000/svg">
<path d="M5.06944 11.585C5.23835 11.6825 5.42996 11.7338 5.625 11.7338C5.82004 11.7338 6.01165 11.6825 6.18056 11.585L10.0694 9.36275C10.2382 9.26533 10.3783 9.12524 10.4759 8.95655C10.5734 8.78786 10.6248 8.59649 10.625 8.40164V3.95719C10.6248 3.76235 10.5734 3.57098 10.4759 3.40228C10.3783 3.23359 10.2382 3.09351 10.0694 2.99608L6.18056 0.773861C6.01165 0.67634 5.82004 0.625 5.625 0.625C5.42996 0.625 5.23835 0.67634 5.06944 0.773861L1.18056 2.99608C1.01181 3.09351 0.871656 3.23359 0.774145 3.40228C0.676635 3.57098 0.6252 3.76235 0.625 3.95719V8.40164C0.6252 8.59649 0.676635 8.78786 0.774145 8.95655C0.871656 9.12524 1.01181 9.26533 1.18056 9.36275L5.06944 11.585Z" stroke="#343839" stroke-width="1.25" stroke-linecap="round" stroke-linejoin="round"/>
<path d="M5.625 11.7372V6.18164" stroke="#343839" stroke-width="1.25" stroke-linecap="round" stroke-linejoin="round"/>
<path d="M0.786133 3.40167L5.62502 6.17945L10.4639 3.40167" stroke="#343839" stroke-width="1.25" stroke-linecap="round" stroke-linejoin="round"/>
<path d="M3.125 1.88477L8.125 4.74588" stroke="#343839" stroke-width="1.25" stroke-linecap="round" stroke-linejoin="round"/>
</svg>
