<svg width="15" height="15" viewBox="0 0 15 15" fill="none" xmlns="http://www.w3.org/2000/svg">
<path d="M1.78374 1.78375C4.16211 -0.594593 8.01865 -0.594573 10.397 1.78375C12.5307 3.91735 12.7488 7.23937 11.0543 9.61773L14.7037 13.2671C15.1001 13.6636 15.1001 14.3063 14.7037 14.7027C14.3073 15.099 13.6645 15.099 13.2681 14.7027L9.61871 11.0533C7.24027 12.7484 3.91762 12.5309 1.78374 10.397C-0.594605 8.01871 -0.594557 4.1621 1.78374 1.78375ZM8.96148 3.2193C7.37589 1.63376 4.80486 1.63374 3.21929 3.2193C1.63379 4.80487 1.63374 7.37595 3.21929 8.96148C4.80483 10.547 7.37589 10.5469 8.96148 8.96148C10.5471 7.37592 10.5471 4.80486 8.96148 3.2193Z" fill="#343839"/>
</svg>
