<svg xmlns="http://www.w3.org/2000/svg" xmlns:xlink="http://www.w3.org/1999/xlink" viewBox="0 0 121.103 31.999" overflow="visible"><g><path d="M 91.494 31.651 L 91.494 15.465 L 96.295 15.465 L 96.295 18.505 L 96.393 18.505 C 96.812 17.428 97.444 16.609 98.291 16.047 C 99.138 15.475 100.157 15.189 101.348 15.189 C 103.079 15.189 104.433 15.727 105.41 16.803 C 106.396 17.879 106.889 19.372 106.889 21.282 L 106.889 31.651 L 101.934 31.651 L 101.934 22.387 C 101.934 21.447 101.697 20.715 101.222 20.191 C 100.757 19.658 100.101 19.391 99.254 19.391 C 98.417 19.391 97.738 19.682 97.217 20.264 C 96.696 20.846 96.435 21.597 96.435 22.518 L 96.435 31.651 Z M 90.6 15.466 L 86.58 31.651 L 81.248 31.651 L 78.75 20.671 L 78.652 20.671 L 76.168 31.651 L 70.92 31.651 L 66.886 15.466 L 71.869 15.466 L 73.893 26.968 L 73.99 26.968 L 76.419 15.466 L 81.137 15.466 L 83.593 26.968 L 83.691 26.968 L 85.715 15.466 Z M 64.611 29.774 C 63.206 31.257 61.271 31.999 58.805 31.999 C 56.339 31.999 54.403 31.257 52.999 29.774 C 51.594 28.281 50.891 26.207 50.891 23.55 C 50.891 20.943 51.603 18.888 53.026 17.385 C 54.45 15.873 56.376 15.116 58.805 15.116 C 61.243 15.116 63.169 15.868 64.583 17.37 C 66.007 18.863 66.719 20.923 66.719 23.55 C 66.719 26.217 66.016 28.291 64.611 29.774 Z M 56.67 26.997 C 57.181 27.801 57.893 28.204 58.805 28.204 C 59.717 28.204 60.429 27.801 60.94 26.997 C 61.452 26.183 61.708 25.034 61.708 23.55 C 61.708 22.106 61.448 20.972 60.926 20.147 C 60.405 19.323 59.698 18.911 58.805 18.911 C 57.902 18.911 57.19 19.323 56.67 20.148 C 56.158 20.962 55.902 22.096 55.902 23.55 C 55.902 25.034 56.158 26.183 56.67 26.997 Z M 34.141 31.651 L 34.141 15.465 L 38.943 15.465 L 38.943 18.505 L 39.04 18.505 C 39.459 17.428 40.092 16.609 40.939 16.047 C 41.785 15.475 42.804 15.189 43.995 15.189 C 45.726 15.189 47.08 15.727 48.057 16.803 C 49.043 17.879 49.536 19.372 49.536 21.282 L 49.536 31.651 L 44.582 31.651 L 44.582 22.387 C 44.582 21.447 44.344 20.715 43.869 20.191 C 43.405 19.658 42.748 19.391 41.901 19.391 C 41.064 19.391 40.385 19.682 39.864 20.264 C 39.342 20.846 39.082 21.597 39.082 22.518 L 39.082 31.651 L 34.141 31.651 Z M 25.166 18.78 C 24.375 18.78 23.709 19.057 23.17 19.609 C 22.63 20.162 22.328 20.87 22.262 21.733 L 28.041 21.733 C 27.995 20.841 27.706 20.128 27.175 19.595 C 26.654 19.052 25.985 18.78 25.165 18.78 Z M 28.153 26.561 L 32.619 26.561 C 32.377 28.218 31.591 29.542 30.26 30.531 C 28.939 31.51 27.273 31.999 25.263 31.999 C 22.807 31.999 20.881 31.258 19.485 29.775 C 18.089 28.292 17.391 26.246 17.391 23.638 C 17.391 21.03 18.085 18.96 19.471 17.428 C 20.858 15.887 22.732 15.116 25.096 15.116 C 27.413 15.116 29.26 15.853 30.637 17.327 C 32.023 18.791 32.717 20.753 32.717 23.216 L 32.717 24.685 L 22.206 24.685 L 22.206 25.005 C 22.206 25.994 22.495 26.798 23.072 27.418 C 23.649 28.029 24.403 28.335 25.333 28.335 C 26.022 28.335 26.617 28.18 27.12 27.869 C 27.622 27.549 27.967 27.113 28.153 26.561 Z M 5.123 14.695 L 5.123 20.657 L 8.151 20.657 C 9.091 20.657 9.826 20.391 10.356 19.857 C 10.887 19.324 11.152 18.602 11.152 17.69 C 11.152 16.789 10.877 16.067 10.329 15.524 C 9.78 14.971 9.049 14.695 8.137 14.695 Z M 5.123 24.307 L 5.123 31.651 L 0 31.651 L 0 10.667 L 8.654 10.667 C 11.147 10.667 13.059 11.273 14.39 12.485 C 15.721 13.697 16.386 15.398 16.386 17.589 C 16.386 18.907 16.084 20.105 15.479 21.18 C 14.874 22.247 14.032 23.027 12.953 23.522 L 16.972 31.651 L 11.222 31.651 L 7.774 24.307 Z" fill="rgb(37,42,52)"></path><g><defs><linearGradient id="renown-sparkle-gradient" x1="0.6965779443332574" x2="0.3034220556667427" y1="0" y2="1"><stop offset="0" stop-color="rgb(33,255,180)" stop-opacity="1"></stop><stop offset="1" stop-color="rgb(0,128,255)" stop-opacity="1"></stop></linearGradient></defs><path d="M 112.103 0.362 C 111.009 4.223 108.09 7.268 104.388 8.405 C 103.924 8.548 103.924 9.228 104.388 9.372 C 108.088 10.509 111.009 13.554 112.103 17.415 C 112.159 17.629 112.351 17.778 112.571 17.778 C 112.791 17.778 112.984 17.629 113.04 17.415 C 114.134 13.554 117.052 10.509 120.754 9.372 C 121.219 9.228 121.219 8.548 120.754 8.405 C 117.054 7.268 114.134 4.223 113.04 0.362 C 112.903 -0.121 112.242 -0.121 112.103 0.362 Z" fill="url(#renown-sparkle-gradient)"></path></g></g></svg>
