<svg xmlns="http://www.w3.org/2000/svg" xmlns:xlink="http://www.w3.org/1999/xlink" viewBox="0 0 216.157 25" overflow="visible"><g><path d="M 3.341 0 C 1.496 0 0 1.492 0 3.333 L 0 21.667 C 0 23.508 1.496 25 3.341 25 L 7.017 25 L 9.24 20.987 C 9.958 19.69 9.731 18.075 8.683 17.025 L 5.113 13.444 C 4.451 12.78 4.099 11.869 4.144 10.933 C 4.189 9.997 4.627 9.123 5.351 8.526 L 15.671 0 Z M 17.61 0 L 15.682 3.504 C 14.972 4.795 15.195 6.399 16.232 7.448 L 20.019 11.279 C 20.68 11.947 21.028 12.862 20.977 13.799 C 20.927 14.737 20.482 15.609 19.753 16.203 L 8.941 25 L 21.718 25 C 23.563 25 25.059 23.508 25.059 21.667 L 25.059 3.333 C 25.059 1.492 23.563 0 21.718 0 Z" fill="rgb(243,245,247)"></path><path d="M 36.608 21.205 L 36.608 16.086 L 39.494 16.086 C 44.039 16.086 46.877 13.626 46.877 9.836 C 46.877 6.046 44.063 3.585 39.541 3.585 L 31.556 3.585 L 31.556 21.206 L 36.607 21.206 Z M 36.608 7.325 L 38.964 7.325 C 40.672 7.325 41.802 8.31 41.802 9.836 C 41.802 11.361 40.672 12.345 38.964 12.345 L 36.607 12.345 L 36.607 7.326 Z M 57.239 21.574 C 62.989 21.574 66.885 18.006 66.885 12.395 C 66.885 6.784 62.989 3.241 57.24 3.241 C 51.467 3.241 47.571 6.784 47.571 12.395 C 47.571 18.006 51.467 21.574 57.24 21.574 Z M 57.239 17.317 C 54.522 17.317 52.645 15.372 52.645 12.395 C 52.645 9.442 54.522 7.473 57.239 7.473 C 59.959 7.473 61.81 9.442 61.81 12.395 C 61.81 15.373 59.958 17.317 57.24 17.317 Z M 78.481 21.205 L 80.887 10.525 L 81.128 10.525 L 83.531 21.204 L 90.603 21.204 L 95.246 3.584 L 90.17 3.584 L 86.971 16.504 L 86.73 16.504 L 83.533 3.585 L 78.482 3.585 L 75.307 16.505 L 75.066 16.505 L 71.843 3.585 L 66.768 3.585 L 71.41 21.206 L 78.482 21.206 Z M 110.079 21.205 L 110.079 17.12 L 101.492 17.12 L 101.492 13.995 L 107.878 13.995 L 107.878 10.625 L 101.492 10.625 L 101.492 7.671 L 109.838 7.671 L 109.838 3.585 L 96.586 3.585 L 96.586 21.206 L 110.079 21.206 Z M 116.753 21.205 L 116.753 15.398 L 117.979 15.398 L 122.26 21.206 L 127.913 21.206 L 122.837 15.005 L 123.03 14.956 C 125.532 14.488 127.36 12.469 127.36 9.591 C 127.36 5.998 124.569 3.586 120.36 3.586 L 111.678 3.586 L 111.678 21.206 L 116.753 21.206 Z M 116.753 7.325 L 119.47 7.325 C 121.082 7.325 122.284 8.212 122.284 9.664 C 122.284 11.14 121.082 12.026 119.47 12.026 L 116.753 12.026 L 116.753 7.326 Z M 134.123 21.205 L 134.123 14.143 L 140.016 14.143 L 140.016 21.204 L 145.091 21.204 L 145.091 3.585 L 140.016 3.585 L 140.016 10.081 L 134.123 10.081 L 134.123 3.585 L 129.047 3.585 L 129.047 21.206 L 134.123 21.206 Z M 156.353 21.574 C 162.102 21.574 165.998 18.006 165.998 12.395 C 165.998 6.784 162.102 3.241 156.353 3.241 C 150.581 3.241 146.684 6.784 146.684 12.395 C 146.684 18.006 150.581 21.574 156.353 21.574 Z M 156.353 17.317 C 153.636 17.317 151.759 15.372 151.759 12.395 C 151.759 9.442 153.636 7.473 156.353 7.473 C 159.072 7.473 160.923 9.442 160.923 12.395 C 160.923 15.373 159.072 17.317 156.353 17.317 Z M 175.579 21.574 C 180.39 21.574 183.66 18.62 183.66 13.97 L 183.66 3.585 L 178.585 3.585 L 178.585 13.798 C 178.585 15.914 177.383 17.317 175.579 17.317 C 173.751 17.317 172.572 15.939 172.572 13.798 L 172.572 3.585 L 167.497 6.641 L 167.497 13.97 C 167.497 18.621 170.768 21.574 175.579 21.574 Z M 193.05 21.574 C 197.86 21.574 201.011 19.31 201.011 15.815 C 201.011 11.558 197.043 10.919 194.108 10.476 C 192.112 10.18 190.404 9.958 190.404 8.63 C 190.404 7.645 191.366 6.956 192.978 6.956 C 194.709 6.956 195.84 7.843 195.84 9.393 L 200.434 9.393 C 200.434 5.751 197.38 3.241 192.81 3.241 C 188.264 3.241 185.329 5.505 185.329 8.999 C 185.329 13.527 189.803 13.896 192.761 14.314 C 194.517 14.56 195.936 14.856 195.936 16.135 C 195.936 17.219 194.877 17.833 193.242 17.833 C 191.173 17.833 189.996 16.874 189.971 15.397 L 185.208 15.397 C 185.208 19.04 188.335 21.573 193.05 21.573 Z M 216.157 21.205 L 216.157 17.12 L 207.57 17.12 L 207.57 13.995 L 213.957 13.995 L 213.957 10.625 L 207.57 10.625 L 207.57 7.671 L 215.917 7.671 L 215.917 3.585 L 202.663 3.585 L 202.663 21.206 L 216.157 21.206 Z" fill="rgb(243,245,247)"></path></g></svg>
