<svg xmlns="http://www.w3.org/2000/svg" viewBox="0 0 136.142 25.055" overflow="visible"><path d="M 11.791 3.848 C 11.952 3.848 12.083 3.718 12.083 3.558 L 12.083 0.001 C 8.833 0.133 5.76 1.512 3.512 3.849 L 11.791 3.849 Z M 7.332 8.991 C 7.332 9.151 7.201 9.281 7.039 9.281 L 0.428 9.281 C 0.855 7.696 1.592 6.21 2.597 4.908 L 7.039 4.908 C 7.201 4.908 7.332 5.038 7.332 5.198 Z M 21.722 21.207 C 19.473 23.543 16.4 24.923 13.15 25.055 L 13.15 21.498 C 13.15 21.337 13.281 21.207 13.442 21.207 Z M 12.083 25.054 C 8.833 24.922 5.761 23.543 3.512 21.206 L 11.791 21.206 C 11.952 21.206 12.083 21.337 12.083 21.497 Z M 8.795 16.063 C 8.795 15.903 8.926 15.773 9.088 15.773 L 24.805 15.773 C 24.378 17.358 23.641 18.844 22.636 20.147 L 9.088 20.147 C 8.926 20.147 8.795 20.016 8.795 19.856 Z M 19.012 10.623 C 19.016 10.465 19.146 10.339 19.305 10.34 L 25.042 10.34 C 25.299 11.787 25.299 13.267 25.042 14.714 L 19.306 14.713 C 19.147 14.713 19.017 14.587 19.013 14.428 L 18.968 12.383 Z M 7.896 19.857 C 7.896 20.018 7.765 20.148 7.603 20.148 L 2.597 20.148 C 1.592 18.845 0.855 17.359 0.428 15.774 L 7.603 15.774 C 7.764 15.774 7.895 15.904 7.895 16.065 L 7.895 19.857 Z M 0.193 10.34 L 17.64 10.34 C 17.801 10.34 17.932 10.47 17.932 10.631 L 17.932 14.423 C 17.932 14.584 17.801 14.714 17.64 14.714 L 0.193 14.714 C -0.064 13.267 -0.064 11.787 0.193 10.34 Z M 8.399 5.198 C 8.399 5.037 8.53 4.907 8.691 4.907 L 22.636 4.907 C 23.641 6.209 24.378 7.696 24.805 9.281 L 8.691 9.281 C 8.53 9.281 8.399 9.151 8.399 8.99 Z M 13.15 0 C 16.401 0.132 19.473 1.512 21.722 3.848 L 13.443 3.848 C 13.281 3.848 13.15 3.718 13.15 3.558 L 13.15 0.001 Z M 33.643 12.633 C 33.643 10.892 34.021 9.344 34.776 7.988 C 35.532 6.616 36.582 5.553 37.926 4.801 C 39.287 4.031 40.824 3.645 42.537 3.645 C 44.637 3.645 46.435 4.198 47.93 5.302 C 49.425 6.407 50.424 7.913 50.928 9.822 L 46.191 9.822 C 45.838 9.085 45.335 8.524 44.68 8.14 C 44.041 7.754 43.31 7.562 42.487 7.562 C 41.16 7.562 40.085 8.022 39.262 8.942 C 38.439 9.863 38.028 11.094 38.028 12.633 C 38.028 14.173 38.439 15.403 39.262 16.323 C 40.085 17.244 41.16 17.703 42.487 17.703 C 43.31 17.703 44.041 17.512 44.68 17.126 C 45.335 16.741 45.838 16.181 46.191 15.445 L 50.928 15.445 C 50.424 17.352 49.425 18.859 47.93 19.963 C 46.435 21.051 44.637 21.595 42.537 21.595 C 40.824 21.595 39.287 21.219 37.926 20.465 C 36.6 19.713 35.509 18.609 34.776 17.277 C 34.021 15.922 33.643 14.373 33.643 12.633 Z M 58.959 21.67 C 57.582 21.67 56.339 21.377 55.23 20.792 C 54.138 20.206 53.273 19.369 52.635 18.281 C 52.013 17.194 51.702 15.921 51.702 14.466 C 51.702 13.026 52.022 11.762 52.66 10.675 C 53.298 9.57 54.172 8.725 55.28 8.14 C 56.39 7.553 57.633 7.26 59.01 7.26 C 60.388 7.26 61.631 7.553 62.739 8.14 C 63.848 8.725 64.722 9.57 65.36 10.674 C 65.998 11.763 66.317 13.026 66.317 14.465 C 66.317 15.905 65.99 17.177 65.335 18.281 C 64.713 19.353 63.795 20.225 62.689 20.792 C 61.58 21.377 60.337 21.67 58.959 21.67 Z M 58.959 17.955 C 59.783 17.955 60.48 17.653 61.051 17.051 C 61.639 16.449 61.933 15.587 61.933 14.466 C 61.933 13.344 61.647 12.482 61.076 11.88 C 60.522 11.277 59.833 10.976 59.01 10.976 C 58.17 10.976 57.473 11.277 56.918 11.88 C 56.364 12.466 56.087 13.327 56.087 14.466 C 56.087 15.587 56.356 16.448 56.893 17.051 C 57.448 17.653 58.136 17.955 58.959 17.955 Z M 76.162 7.311 C 77.809 7.311 79.119 7.846 80.093 8.917 C 81.085 9.972 81.58 11.428 81.58 13.285 L 81.58 21.469 L 77.297 21.469 L 77.297 13.863 C 77.297 12.926 77.053 12.198 76.566 11.679 C 76.079 11.16 75.424 10.901 74.601 10.901 C 73.777 10.901 73.122 11.16 72.635 11.679 C 72.148 12.198 71.904 12.926 71.904 13.863 L 71.904 21.469 L 67.595 21.469 L 67.595 7.462 L 71.904 7.462 L 71.904 9.319 C 72.341 8.7 72.929 8.215 73.668 7.863 C 74.407 7.495 75.239 7.31 76.162 7.31 Z M 92.134 7.311 C 93.781 7.311 95.091 7.846 96.065 8.917 C 97.056 9.972 97.552 11.428 97.552 13.285 L 97.552 21.469 L 93.268 21.469 L 93.268 13.863 C 93.268 12.926 93.024 12.198 92.537 11.679 C 92.05 11.16 91.395 10.901 90.571 10.901 C 89.748 10.901 89.093 11.16 88.606 11.679 C 88.119 12.198 87.875 12.926 87.875 13.863 L 87.875 21.469 L 83.567 21.469 L 83.567 7.462 L 87.875 7.462 L 87.875 9.319 C 88.312 8.7 88.9 8.215 89.639 7.863 C 90.378 7.495 91.21 7.31 92.134 7.31 Z M 112.792 14.24 C 112.792 14.641 112.767 15.059 112.716 15.495 L 102.965 15.495 C 103.032 16.365 103.309 17.034 103.797 17.503 C 104.3 17.955 104.913 18.181 105.636 18.181 C 106.711 18.181 107.458 17.729 107.878 16.825 L 112.464 16.825 C 112.232 17.74 111.793 18.59 111.179 19.31 C 110.575 20.047 109.81 20.624 108.886 21.043 C 107.963 21.461 106.929 21.67 105.787 21.67 C 104.41 21.67 103.183 21.377 102.108 20.792 C 101.033 20.206 100.193 19.369 99.588 18.281 C 98.984 17.194 98.681 15.921 98.681 14.466 C 98.681 13.009 98.975 11.737 99.563 10.649 C 100.168 9.562 101.007 8.725 102.083 8.14 C 103.158 7.553 104.393 7.26 105.787 7.26 C 107.148 7.26 108.357 7.545 109.416 8.114 C 110.46 8.669 111.318 9.516 111.885 10.549 C 112.489 11.603 112.792 12.834 112.792 14.24 Z M 108.383 13.11 C 108.383 12.373 108.13 11.788 107.626 11.352 C 107.123 10.917 106.493 10.7 105.737 10.7 C 105.014 10.7 104.401 10.909 103.897 11.328 C 103.41 11.746 103.107 12.34 102.99 13.11 Z M 113.201 14.466 C 113.201 13.009 113.494 11.737 114.082 10.649 C 114.687 9.562 115.519 8.725 116.577 8.14 C 117.652 7.553 118.878 7.26 120.256 7.26 C 122.02 7.26 123.49 7.721 124.666 8.641 C 125.858 9.562 126.639 10.859 127.009 12.533 L 122.423 12.533 C 122.037 11.461 121.289 10.926 120.18 10.926 C 119.391 10.926 118.761 11.235 118.29 11.855 C 117.82 12.457 117.585 13.327 117.585 14.465 C 117.585 15.603 117.82 16.483 118.29 17.101 C 118.761 17.704 119.391 18.005 120.18 18.005 C 121.289 18.005 122.037 17.47 122.423 16.398 L 127.009 16.398 C 126.639 18.038 125.858 19.327 124.666 20.265 C 123.473 21.202 122.003 21.67 120.256 21.67 C 118.878 21.67 117.652 21.377 116.577 20.792 C 115.519 20.206 114.687 19.369 114.082 18.281 C 113.494 17.194 113.201 15.921 113.201 14.466 Z M 136.142 17.83 L 136.142 21.469 L 133.95 21.469 C 132.388 21.469 131.17 21.093 130.296 20.34 C 129.423 19.57 128.986 18.323 128.986 16.599 L 128.986 11.026 L 127.273 11.026 L 127.273 7.462 L 128.986 7.462 L 128.986 4.047 L 133.295 4.047 L 133.295 7.462 L 136.117 7.462 L 136.117 11.026 L 133.295 11.026 L 133.295 16.649 C 133.295 17.068 133.396 17.369 133.598 17.553 C 133.799 17.737 134.135 17.829 134.606 17.829 L 136.142 17.829 Z" fill="rgb(142,85,234)"></path></svg>
