<svg xmlns="http://www.w3.org/2000/svg" xmlns:xlink="http://www.w3.org/1999/xlink" viewBox="0 0 117.319 25" overflow="visible"><g><path d="M 12.686 16.267 C 16.245 16.256 19.659 17.682 22.163 20.224 C 22.778 20.846 23.321 21.513 23.791 22.216 C 24.029 22.572 23.871 23.05 23.477 23.216 L 19.404 24.944 C 19.104 25.072 18.758 24.973 18.545 24.723 C 17.91 23.972 17.136 23.35 16.267 22.891 C 15.163 22.309 13.933 22.008 12.686 22.013 C 10.43 22.003 8.286 22.995 6.826 24.723 C 6.614 24.973 6.268 25.072 5.967 24.944 L 1.894 23.217 C 1.501 23.05 1.342 22.572 1.581 22.216 C 2.059 21.501 2.604 20.835 3.208 20.224 C 5.712 17.682 9.126 16.257 12.685 16.267 Z M 5.712 2.517 C 5.67 2.18 5.845 1.845 6.159 1.717 L 10.207 0.053 C 10.597 -0.107 11.04 0.109 11.131 0.522 C 11.342 1.473 11.453 2.464 11.453 3.48 C 11.453 10.003 6.88 15.447 0.799 16.712 C 0.357 16.804 -0.033 16.435 0.002 15.984 L 0.358 11.366 C 0.385 11.078 0.574 10.83 0.845 10.73 C 3.819 9.567 5.775 6.686 5.77 3.48 C 5.77 3.154 5.75 2.833 5.712 2.517 Z M 19.899 3.48 C 19.893 6.686 21.85 9.567 24.824 10.73 C 25.094 10.83 25.284 11.078 25.311 11.366 L 25.667 15.984 C 25.702 16.435 25.311 16.804 24.87 16.712 C 18.789 15.447 14.217 10.003 14.217 3.48 C 14.217 2.464 14.328 1.473 14.538 0.522 C 14.629 0.109 15.072 -0.107 15.461 0.053 L 19.51 1.717 C 19.824 1.845 19.998 2.18 19.957 2.517 C 19.918 2.833 19.899 3.154 19.899 3.48 Z" fill="rgb(122,58,255)"></path><path d="M 83.796 21.775 C 83.622 21.775 83.481 21.633 83.481 21.459 L 83.481 4.85 C 83.481 4.675 83.622 4.534 83.796 4.534 L 92.805 4.534 C 96.085 4.534 98.378 6.775 98.378 9.987 C 98.378 12.401 96.985 14.362 94.862 15.137 L 98.853 21.286 C 98.916 21.383 98.921 21.507 98.866 21.609 C 98.811 21.711 98.705 21.775 98.589 21.775 L 94.628 21.775 C 94.521 21.775 94.421 21.72 94.363 21.629 L 90.511 15.547 L 87.66 15.547 L 87.66 21.459 C 87.66 21.633 87.519 21.775 87.346 21.775 Z M 87.66 11.775 L 92.547 11.775 C 93.534 11.775 94.198 11.064 94.198 10.051 C 94.198 9.016 93.534 8.305 92.547 8.305 L 87.66 8.305 Z M 66.706 21.775 C 66.533 21.775 66.392 21.633 66.392 21.459 L 66.392 4.85 C 66.392 4.675 66.532 4.534 66.706 4.534 L 70.256 4.534 C 70.43 4.534 70.571 4.675 70.571 4.85 L 70.571 11.129 L 76.894 11.129 L 76.894 4.849 C 76.894 4.674 77.035 4.533 77.209 4.533 L 80.737 4.533 C 80.912 4.533 81.052 4.674 81.052 4.849 L 81.052 21.459 C 81.052 21.633 80.911 21.774 80.737 21.774 L 77.209 21.774 C 77.126 21.774 77.046 21.741 76.986 21.682 C 76.927 21.622 76.894 21.542 76.894 21.458 L 76.894 14.899 L 70.571 14.899 L 70.571 21.458 C 70.571 21.633 70.43 21.774 70.256 21.774 L 66.706 21.774 Z M 56.339 22.012 C 51.26 22.012 47.638 18.413 47.638 13.133 C 47.638 7.874 51.26 4.297 56.297 4.297 C 60.765 4.297 64.024 7.194 64.96 11.162 C 64.981 11.254 64.959 11.35 64.9 11.423 C 64.842 11.497 64.752 11.539 64.659 11.537 L 60.95 11.537 C 60.809 11.536 60.685 11.444 60.641 11.309 C 60.016 9.483 58.304 8.258 56.382 8.262 C 53.853 8.262 51.924 10.223 51.924 13.133 C 51.924 16.02 53.875 17.939 56.426 17.939 C 58.522 17.939 60.125 16.73 60.707 14.959 C 60.75 14.823 60.875 14.729 61.017 14.727 L 64.713 14.727 C 64.907 14.727 65.056 14.903 65.016 15.095 C 64.182 19.187 60.878 22.012 56.34 22.012 Z M 41.928 4.534 C 42.058 4.534 42.175 4.613 42.222 4.735 L 48.644 21.345 C 48.681 21.442 48.668 21.552 48.61 21.638 C 48.551 21.724 48.454 21.775 48.35 21.775 L 44.763 21.775 C 44.631 21.775 44.514 21.694 44.467 21.57 L 43.301 18.456 L 42.015 14.964 L 40.087 9.835 L 38.522 13.995 L 41.075 13.995 C 41.293 13.995 41.446 14.212 41.372 14.417 L 40.258 17.556 C 40.213 17.683 40.094 17.767 39.961 17.767 L 37.125 17.767 L 36.871 18.456 L 35.705 21.57 C 35.659 21.694 35.541 21.775 35.41 21.775 L 31.801 21.775 C 31.697 21.775 31.6 21.724 31.541 21.638 C 31.482 21.552 31.469 21.442 31.507 21.345 L 37.907 4.735 C 37.955 4.613 38.071 4.533 38.201 4.534 Z M 110.582 4.534 C 110.712 4.534 110.829 4.613 110.876 4.735 L 117.297 21.345 C 117.335 21.442 117.322 21.552 117.263 21.638 C 117.205 21.724 117.107 21.775 117.004 21.775 L 113.417 21.775 C 113.285 21.775 113.168 21.694 113.122 21.57 L 111.956 18.456 L 110.669 14.964 L 108.74 9.835 L 107.176 13.995 L 109.729 13.995 C 109.947 13.995 110.099 14.212 110.026 14.417 L 108.911 17.556 C 108.867 17.683 108.748 17.767 108.614 17.767 L 105.779 17.767 L 105.525 18.456 L 104.359 21.57 C 104.313 21.694 104.195 21.775 104.064 21.775 L 100.454 21.775 C 100.351 21.775 100.254 21.723 100.195 21.637 C 100.137 21.551 100.124 21.442 100.161 21.345 L 106.562 4.735 C 106.609 4.614 106.725 4.533 106.855 4.534 Z" fill="rgb(20,20,20)"></path></g></svg>
