<svg width="110" height="110" viewBox="0 0 110 110" fill="none" xmlns="http://www.w3.org/2000/svg">
<path d="M84.0984 30.2966C83.7727 29.9709 83.7727 29.4427 84.0984 29.1169L95.4359 17.7788C105.374 28.5764 110.202 42.3847 109.915 56.1148L84.0984 30.2966ZM67.2595 45.9565C66.9338 46.2823 66.9338 46.8105 67.2595 47.1363L102.577 82.4552C106.228 76.1371 108.52 69.2459 109.452 62.2142L80.8172 33.5782C80.4914 33.2524 79.9632 33.2524 79.6374 33.5782L67.2595 45.9565ZM0.0120334 53.8178C-0.274431 67.5427 4.55379 81.3509 14.4915 92.1537L25.829 80.8157C26.1548 80.49 26.1548 79.9618 25.829 79.636L0.0120334 53.8178ZM17.778 95.4352C28.5751 105.373 42.3879 110.202 56.1122 109.915L30.2952 84.0973C29.9695 83.7715 29.4413 83.7715 29.1155 84.0973L17.778 95.4352ZM56.088 77.3863C56.4138 77.0606 56.4138 76.5324 56.088 76.2066L7.35593 27.4722C3.70481 33.7904 1.41309 40.6762 0.480774 47.7131L42.5304 89.7648C42.8562 90.0906 43.3844 90.0906 43.7102 89.7648L56.088 77.3863ZM41.4603 29.0489C41.7722 28.721 41.7657 28.2042 41.4457 27.8842L23.4656 9.90333C20.877 11.716 18.4082 13.7785 16.0957 16.0912C13.7831 18.4039 11.7206 20.8729 9.90808 23.4616L27.8865 41.4357C28.2072 41.7563 28.7252 41.7621 29.0529 41.4487L35.8455 34.9528L41.4603 29.0489ZM46.4789 92.539C46.1532 92.8648 46.1532 93.393 46.4789 93.7187L62.2113 109.452C69.2479 108.519 76.1334 106.228 82.4513 102.576L60.0366 80.1606C59.7108 79.8348 59.1826 79.8348 58.8568 80.1606L46.4789 92.539ZM100.019 86.4607L45.9594 32.3981C45.6336 32.0723 45.1054 32.0723 44.7796 32.3981L32.4017 44.7765C32.076 45.1023 32.076 45.6305 32.4017 45.9562L86.4618 100.019C89.0504 98.2063 91.5192 96.1436 93.8317 93.8309C96.1443 91.5183 98.2068 89.0494 100.019 86.4607ZM76.3509 30.2914C76.6767 29.9657 76.6767 29.4375 76.3509 29.1117L47.7162 0.475551C40.6796 1.40791 33.794 3.69971 27.4762 7.351L62.7933 42.6699C63.1191 42.9957 63.6473 42.9957 63.9731 42.6699L76.3509 30.2914ZM92.1494 14.4922C81.3523 4.55404 67.5395 -0.274444 53.8153 0.0120339L79.6322 25.8302C79.958 26.156 80.4862 26.156 80.812 25.8302L92.1494 14.4922Z" fill="url(#paint0_linear_3977_17022)"/>
<defs>
<linearGradient id="paint0_linear_3977_17022" x1="54.9637" y1="0" x2="54.9637" y2="109.927" gradientUnits="userSpaceOnUse">
<stop stop-color="#CC00FF"/>
<stop offset="1" stop-color="#8D45FA"/>
</linearGradient>
</defs>
</svg>
