<svg width="112" height="112" viewBox="0 0 112 112" fill="none" xmlns="http://www.w3.org/2000/svg">
<path d="M111.475 62.7039L104.332 49.1141C93.9759 54.5593 85.5656 57.864 79.1909 58.9898C86.6299 53.9348 93.3983 45.2156 99.5734 32.7554L85.8219 25.9192C81.6105 34.4014 77.6773 39.8388 74.1222 43.2984C76.1651 33.9878 73.6327 20.8478 62.6694 -8.20566e-05L49.0843 7.14516C54.5276 17.5048 57.8311 25.918 58.9566 32.282C53.9034 24.8404 45.1872 18.0826 32.7442 11.8925L25.9103 25.6488C34.3895 29.8617 39.8251 33.7962 43.2835 37.3525C33.9761 35.309 20.8406 37.8422 -6.03091e-05 48.7965L7.14267 62.3863C17.4859 56.941 25.8833 53.6492 32.258 52.5105C24.806 57.6297 18.0505 66.3361 11.9012 78.7321L25.6527 85.5683C29.8383 77.1246 33.7844 71.6744 37.3524 68.1891C35.3096 77.4998 37.8419 90.6397 48.8052 111.488L62.3903 104.342C56.947 93.9956 53.6563 85.5953 52.518 79.2184C57.6354 86.673 66.3388 93.4308 78.7305 99.5822L85.5644 85.8259C77.1236 81.6389 71.6752 77.7043 68.1912 74.1351C70.0783 74.5516 72.1073 74.7757 74.3425 74.7819C83.1289 74.8065 94.8665 71.4212 111.488 62.6782L111.475 62.7039Z" fill="#F43E81"/>
</svg>
