<svg width="100" height="76" viewBox="0 0 100 76" fill="none" xmlns="http://www.w3.org/2000/svg">
<path d="M100 6.65809C100 5.96131 99.5968 5.32749 98.9657 5.03222L88.5713 0.169205C87.9668 -0.113603 87.2553 -0.0377069 86.7241 0.366251L54.5228 24.8531L66.969 34.223L84.669 20.7634V54.6965L13.1125 0.713533C12.5811 0.312616 11.8714 0.238727 11.2688 0.521569L1.03234 5.32608C0.40231 5.62179 0 6.25504 0 6.95101V68.7566C0 69.4532 0.403023 70.0869 1.0339 70.3822L11.4285 75.2488C12.0331 75.5319 12.7448 75.4561 13.2762 75.052L45.258 50.7312L32.8117 41.3613L15.331 54.655V21.0122L86.8572 75.0111C87.3887 75.4124 88.0988 75.4864 88.7016 75.2033L98.9679 70.3828C99.5978 70.087 100 69.4538 100 68.758V6.65809Z" fill="url(#paint0_linear_3977_16994)"/>
<defs>
<linearGradient id="paint0_linear_3977_16994" x1="100" y1="36.1892" x2="-3.11964" y2="32.977" gradientUnits="userSpaceOnUse">
<stop stop-color="#F2CB29"/>
<stop offset="1" stop-color="#F2462A"/>
</linearGradient>
</defs>
</svg>
